<?xml version="1.0" encoding="UTF-8"?>
<svg xmlns="http://www.w3.org/2000/svg" viewBox="0 0 600.33 301.53">
  <defs>
    <style>
      .cls-1, .cls-2, .cls-3 {
        fill: none;
      }

      .cls-2, .cls-4, .cls-5, .cls-6, .cls-7, .cls-3, .cls-8, .cls-9, .cls-10, .cls-11, .cls-12 {
        stroke-miterlimit: 10;
      }

      .cls-2, .cls-8 {
        stroke: #231f20;
      }

      .cls-4 {
        fill: #d4d0d0;
      }

      .cls-4, .cls-5, .cls-6, .cls-7, .cls-3, .cls-9, .cls-10, .cls-11, .cls-12 {
        stroke: #000;
      }

      .cls-13, .cls-14, .cls-15, .cls-16, .cls-17 {
        fill-rule: evenodd;
      }

      .cls-13, .cls-18, .cls-19, .cls-8, .cls-20 {
        fill: #fff;
      }

      .cls-21 {
        fill: #231f20;
      }

      .cls-22 {
        fill: #666766;
      }

      .cls-23 {
        fill: #dbd5d7;
      }

      .cls-24 {
        fill: #c4c4c4;
      }

      .cls-25 {
        fill: #c2c1c0;
      }

      .cls-26 {
        fill: #333031;
      }

      .cls-5, .cls-27, .cls-28 {
        fill: #ed2024;
      }

      .cls-29 {
        fill: #cd2027;
      }

      .cls-6 {
        fill: #e4e4e9;
      }

      .cls-7 {
        fill: #847a88;
      }

      .cls-15 {
        fill: #c03c2f;
      }

      .cls-19, .cls-28 {
        font-family: MyriadPro-Regular, 'Myriad Pro';
      }

      .cls-19, .cls-28, .cls-20 {
        font-size: 12px;
      }

      .cls-30 {
        fill: #282828;
      }

      .cls-31 {
        fill: #565656;
      }

      .cls-9 {
        fill: #e6e2e5;
      }

      .cls-10 {
        fill: #d77a28;
      }

      .cls-16, .cls-32 {
        fill: #716e6f;
      }

      .cls-33 {
        fill: #d2d1d0;
      }

      .cls-34 {
        fill: #847e85;
      }

      .cls-11 {
        fill: #4c4741;
      }

      .cls-35 {
        fill: #232323;
      }

      .cls-36 {
        fill: #242021;
      }

      .cls-12 {
        fill: #e1dfdf;
      }

      .cls-37 {
        fill: #f0edf6;
      }

      .cls-20 {
        font-family: DINAlternate-Bold, 'DIN Alternate';
        font-weight: 700;
      }

      .cls-17 {
        fill: #c5ac2f;
      }
    </style>
  </defs>
  <g id="BG">
    <rect class="cls-22" x=".33" width="600" height="301.53"/>
  </g>
  <g id="Wheels">
    <g>
      <path class="cls-21" d="M362.05,277.96c0,12.22,9.9,20.71,22.12,20.71,12.22,0,22.12-8.49,22.12-20.71s-9.9-22.12-22.12-22.12c-12.22,0-22.12,9.9-22.12,22.12Z"/>
      <circle class="cls-36" cx="383.15" cy="277.67" r="10.05"/>
      <path class="cls-5" d="M392.6,270.23l-2.04,2.92c.09,8.06-.19,8.85-.19,8.85l2.22,2.87s5.88-7.41,0-14.64Z"/>
      <path class="cls-23" d="M368.32,277.96c0,8.75,7.09,15.84,15.84,15.84,8.75,0,15.84-7.09,15.84-15.84,0-8.75-7.09-15.84-15.84-15.84s-15.84,7.09-15.84,15.84ZM374.03,270.58l1.3-1.64,2.22-1.71,2.19-1.16c.87,7.85-.4,5.99-5.72,4.51ZM390.56,267.62c-5.88,5.27-5.11,3.15-6.99-2.03l2.1.1,2.68.81,2.22,1.11ZM395.5,279.59l-.42,2.06-1.21,2.53-1.43,2.03c-4.32-6.61-2.35-5.53,3.06-6.61ZM392.26,269.85l1.36,1.6,1.24,2.51.71,2.38c-7.87-.68-5.8-1.56-3.31-6.49ZM382.71,289.48c2.77-7.4,3.06-5.16,7.14-1.45l-1.91.88-2.75.52-2.48.05ZM374.13,283.66c7.67-1.88,5.99-.38,5.22,5.08l-1.8-1.08-1.98-1.98-1.44-2.02ZM372.42,280.73l-.48-2.04.03-2.8.45-2.44c6.7,4.18,4.45,4.03,0,7.28Z"/>
      <circle class="cls-21" cx="387.55" cy="274.56" r="1.12"/>
      <circle class="cls-21" cx="382.71" cy="273.44" r="1.12"/>
      <circle class="cls-21" cx="380.05" cy="277.96" r="1.12"/>
      <circle class="cls-21" cx="383.15" cy="281.85" r="1.12"/>
      <circle class="cls-21" cx="387.55" cy="280.13" r="1.12"/>
      <circle class="cls-33" cx="384.23" cy="277.64" r="2.2"/>
    </g>
    <g>
      <path class="cls-21" d="M213.25,279.35c0,12.22-9.9,20.71-22.12,20.71s-22.12-8.49-22.12-20.71c0-12.22,9.9-22.12,22.12-22.12s22.12,9.9,22.12,22.12Z"/>
      <circle class="cls-36" cx="192.15" cy="279.06" r="10.05"/>
      <path class="cls-5" d="M182.7,271.62l2.04,2.92c-.09,8.06.19,8.85.19,8.85l-2.22,2.87s-5.88-7.41,0-14.64Z"/>
      <path class="cls-23" d="M191.13,263.51c-8.75,0-15.84,7.09-15.84,15.84,0,8.75,7.09,15.84,15.84,15.84,8.75,0,15.84-7.09,15.84-15.84,0-8.75-7.09-15.84-15.84-15.84ZM195.56,267.46l2.19,1.16,2.22,1.71,1.3,1.64c-5.31,1.48-6.58,3.34-5.72-4.51ZM186.96,267.9l2.68-.81,2.1-.1c-1.89,5.18-1.11,7.3-6.99,2.03l2.22-1.11ZM182.86,287.58l-1.43-2.03-1.21-2.53-.42-2.06c5.41,1.08,7.38,0,3.06,6.61ZM179.73,277.72l.71-2.38,1.24-2.51,1.36-1.6c2.48,4.92,4.56,5.81-3.31,6.49ZM190.11,290.82l-2.75-.52-1.91-.88c4.08-3.71,4.37-5.95,7.14,1.45l-2.48-.05ZM199.74,287.08l-1.98,1.98-1.8,1.08c-.77-5.46-2.45-6.96,5.22-5.08l-1.44,2.02ZM202.88,274.83l.45,2.44.03,2.8-.48,2.04c-4.45-3.26-6.7-3.1,0-7.28Z"/>
      <circle class="cls-21" cx="187.75" cy="275.95" r="1.12"/>
      <circle class="cls-21" cx="192.59" cy="274.83" r="1.12"/>
      <circle class="cls-21" cx="195.25" cy="279.35" r="1.12"/>
      <circle class="cls-21" cx="192.15" cy="283.23" r="1.12"/>
      <circle class="cls-21" cx="187.75" cy="281.52" r="1.12"/>
      <path class="cls-33" d="M193.27,279.03c0,1.22-.99,2.2-2.2,2.2s-2.2-.99-2.2-2.2.99-2.2,2.2-2.2,2.2.99,2.2,2.2Z"/>
    </g>
  </g>
  <g id="Shell">
    <g>
      <path class="cls-25" d="M151.63,282.33h15.5c.62,0,1.13.51,1.13,1.13v3.48c0,.62-.51,1.13-1.13,1.13h-15.5v-5.74h0Z"/>
      <rect class="cls-25" x="148.24" y="283.04" width="5.03" height="4.33"/>
    </g>
    <path class="cls-8" d="M410.42,287.72s-.81-23.36-10.41-28.92c-9.6-5.56-26-5.58-33.23,3.32-7.23,8.91-8.34,13.05-9.31,24.91-18.34-.23-141.33.33-141.33.33l.14-5.66s-.6-16.73-12.18-23.31c-11.58-6.58-25.76-.56-25.76-.56,0,0-13.62,6.16-12.04,25.41-11.95-1.04-14.36-2.26-14.36-2.26,0,0-1.67-3.09-1.76-6.5-1.11-3.31,0-1.74,0-1.74l-1.48-2.37s-1.11-8.84,0-10.6,5.56-1.95,6.58-3.06c.09-2.59-.37-3.43-.37-3.43,0,0-.34-8.45-.27-13,.02-1.65.54-3.25,1.49-4.6,1.84-2.6,3.58-4.66,3.58-4.66,0,0,41.33-23.97,44.2-24.62h3.24s1.2-.65,1.2-.65c0,0,78.29-3.98,90.7,2.96,12.41,6.95,50.96,27.33,50.96,27.33l5.84-.56s63.46,9.64,67.73,16.21c4.26,6.58,3.34,7.69,3.34,7.69l6.3,2.72c.46,6.27,0,8.56,0,8.56,0,0-1.76,6.51-3.43,7.9l.37,2.96.93,2.13s-1.11,2.08-2.96,2.52-11.24,1.7-17.7,1.52Z"/>
    <path class="cls-7" d="M412.05,248.63c-1.17-.1-2.19.81-2.21,1.99-.01.6.2,3.07.38,4.09.47,2.68.63,2.91,1,3.71.13.28.36.48.65.58.59.2,1.84.54,4.21.78,4.71-.1,7.94-.13,9.23-.19.75-.04,1.22-.84.87-1.51-.56-1.09-1.71-2.92-4.08-5.86-5.26-2.66-8.33-3.45-10.05-3.61Z"/>
    <path class="cls-34" d="M412.7,249.61s11.08,9.04,9.44,8.87l-7.91-.65s-1.6-.03-2.84-4.42c.9-4.01,1.31-3.79,1.31-3.79Z"/>
    <path class="cls-37" d="M412.93,249.7l2.73,2.1-4.2.6s-1.93-3,0-2.89,1.47.19,1.47.19Z"/>
    <path d="M207.15,206.41s.83,1.38-3.67,4.65c-5.52,3.15-33.96,18.64-33.96,18.64,0,0-7.39,1.14-9.52.99,43.04-23.93,43.92-24.27,43.92-24.27h3.24Z"/>
    <path class="cls-18" d="M203.81,205.17l-19.07-.55s-2.65-.11-.65,2.95c5.84,2.95,9.36,4.47,9.36,4.47,0,0,2.05,1.45,3.85-.19,7.26-4.66,6.79-4.36,6.79-4.36,0,0,1.28-1.31-.27-2.32Z"/>
    <path class="cls-29" d="M164.56,230.36s-2.68.39-4.56.32c-4.21,4.51-3.87,5.01-3.87,5.01,0,0-1.49,2.11-1.49,4.6s.27,13,.27,13c0,0,2.67.7,4.69.54s2.76-2.17,2.76-2.17l.25-12.68s.76-8.46,1.95-8.61Z"/>
    <path class="cls-18" d="M161.09,243.98v3.09c0,.36-.25.67-.6.74-.21.04-.5.08-.9.12-1.49.12-4.83-.16-4.83-.16l-.09-4.18s4.51.13,6.04.04c.2-.01.38.15.38.35Z"/>
    <path class="cls-2" d="M160.21,253.7c0,2.33.87,2.6.87,2.6h16s1.89,1.18,1.25,1.52"/>
    <path class="cls-21" d="M325.4,226.55l-23.46-12.98s-3.06-3-15.71-4.94c-14.51-1.61-38.85-1.72-38.85-1.72l-21.06.98s-8.62,0-17.13,5.46-15.48,12.22-15.48,12.22c0,0-2.74,2.95,2.17,6.22,17.46,1.31,56.63,3.38,56.63,3.38l72.89,3.49.65-.98-5.13-1.42s-2.07-.11-2.07-3.06c0-2.95.65-4.58.65-4.58,0,0,.13-1.57,5.89-2.07Z"/>
    <polygon class="cls-26" points="252.4 208.63 256.71 235.37 251.2 235.1 247.38 206.9 252.24 206.9 252.4 208.63"/>
    <path class="cls-2" d="M252.51,235.17s-2.75,11.83-2.1,22.55c.65,12.19,3.38,23.81,3.38,23.81"/>
    <line class="cls-2" x1="216.88" y1="281.35" x2="358.42" y2="281.69"/>
    <rect class="cls-6" x="171.76" y="237.16" width="12.31" height="11.4" rx="4.63" ry="4.63" transform="translate(355.84 485.73) rotate(180)"/>
    <rect class="cls-10" x="354.09" y="253.44" width="6.44" height="2.88" rx="1.17" ry="1.17" transform="translate(714.61 509.77) rotate(180)"/>
    <path class="cls-4" d="M326.06,237.68l.59.98s11.29.52,12.68.44.33-1.31.33-1.31l-10.31-8.51-3.29,8.4Z"/>
    <path class="cls-9" d="M325.99,226.95l2.41,1.67c.61.42,1.06,1.04,1.27,1.75l1.12,3.76c.26.88-.02,1.83-.71,2.43h0s0,0,0,0l-2.29,1.23s0,0,0,0l-5.91-1.27h0s-3.29-.19-3.02-3.32.65-4.58.65-4.58c0,0-.47-1.18,5.17-1.98.46-.06.93.05,1.31.31Z"/>
    <path class="cls-3" d="M343.58,235.17v1.53s0,2.07-1.53,1.96l-1.53-.11"/>
    <path class="cls-3" d="M342.05,238.66s4.26,4.45,4.47,13.74c.22,9.29-.55,18.28-.55,18.28,0,0-.55,6.34-2.4,11.32"/>
    <line class="cls-3" x1="400.01" y1="258.8" x2="411.22" y2="258.43"/>
    <path class="cls-11" d="M433.21,270.68l-2.6,1.14s-1.37.14-1.04,1.84c-1.62,4.48-1.6,5.14-1.6,5.14l1.81-.22s2.14-3.15,3.43-7.9Z"/>
    <path class="cls-3" d="M429.78,278.49s-.26.81-2.79,1.14-17.14.53-17.14.53"/>
    <path class="cls-12" d="M346.53,263.55l-.2,3.27,8.76-.11s3.28-1.55,0-3.25l-8.56.08Z"/>
    <path class="cls-12" d="M250.78,262.59l.34,3.15-31.96-.28s-4.34-1.76,0-3.36l31.63.49Z"/>
    <polygon class="cls-12" points="346.53 263.55 250.78 262.59 251.12 265.74 346.33 266.82 346.53 263.55"/>
    <path class="cls-1" d="M232.97,275.53c.05-.04.09-.09.1-.17l.28-.54c.03-.05.04-.1.01-.14-.03-.03-.05-.05-.1-.05h-.96s-1.41-.09-1.41-.09c-1.36-.08-2.46-.08-3.29-.01l-1.15.16c-.39.09-.63.21-.74.36-.05.06-.08.13-.08.23.01.17.17.36.48.56.31.19.71.36,1.18.48.69.18,1.54.31,2.59.41l-.83.25c-.47.17-1.04.31-1.68.45l-2.56.43c-.05.01-.08.03-.08.05l.04.06.41.32c.44.3.87.56,1.27.75l.38.16c.06,0,.16-.03.28-.08l2.2-1.01c.54-.25,1.01-.43,1.39-.54.44-.14.85-.25,1.27-.3l.39.89c.14.29.26.47.38.56.1.09.35.13.75.13l.74-.08c.09-.04.18-.1.25-.19.08-.09.1-.17.1-.23s-.04-.09-.09-.12c-.13-.04-.26-.16-.4-.32l-.67-.79-.26-.4c.08-.22.09-.35.05-.39-.04-.04-.14-.06-.34-.08l-.35-.57-.04-.17.32.05.17-.03h0ZM231.52,276.12l-1.4-.22c-.7-.13-1.28-.26-1.76-.41l2.53-.08.74.03c-.13.1-.18.29-.13.54l.03.14Z"/>
    <path class="cls-16" d="M228.21,276.98s0-.04-.03-.04h-2.98s-.05.01-.05.04l-.14.28s0,.04.03.04h1.09s.04.01.03.03l-.65,1.39s0,.04.03.04h.65l.05-.04.65-1.39.05-.03h1.09l.06-.04.13-.28Z"/>
    <path class="cls-16" d="M231.69,276.94h-.71l-.08.03-1.36.89s-.04.01-.05-.01l-.49-.87-.06-.04h-.39s-.04.01-.03.04l.65,1.14v.06l-.25.53s0,.04.03.04h.65l.06-.04.23-.52.05-.06,1.76-1.17s.01-.03-.01-.03"/>
    <path class="cls-16" d="M234.6,277.1c-.09-.1-.25-.16-.48-.16h-2.06s-.05.01-.06.04l-.8,1.74s-.01.04.03.04h.62l.06-.04.31-.66.06-.04h1.46c.45,0,.75-.18.91-.53.06-.16.05-.28-.05-.39h0ZM233.63,277.3c.12,0,.21.01.26.05.06.03.08.08.05.12-.08.16-.23.22-.49.22h-1.02s-.03-.01-.03-.04l.16-.31.05-.04h1.02Z"/>
    <path class="cls-16" d="M237.63,277.3l.06-.04.13-.28s0-.04-.03-.04h-2.47l-.06.04-.8,1.74s0,.04.03.04h2.47l.06-.04.13-.3s0-.03-.03-.03h-1.75s-.04-.01-.03-.04l.13-.28s.04-.04.06-.04h1.59l.05-.04.14-.29s0-.04-.03-.04h-1.59s-.04-.01-.03-.04l.13-.28.06-.04h1.75Z"/>
    <g>
      <path class="cls-14" d="M234.28,274.66l-.04-.04h-.87s-.03.03-.03.04v1.7s.01.04.03.04h.87l.04-.04v-1.7ZM234.77,274.88c-.12.13-.18.35-.18.62s.06.5.18.65c.12.13.3.21.56.23l2.27.03.04-.05v-.35l-.04-.04h-1.62c-.14-.01-.23-.04-.27-.12-.04-.05-.06-.17-.06-.34,0-.16.03-.26.05-.32.05-.06.13-.1.27-.12h1.63s.04-.01.04-.04v-.38l-.04-.04-2.27.03c-.26.03-.44.1-.56.23M230.62,274.66l-.04-.04h-.88l-.04.04v1.7s.04.04.04.04h1.37c.34-.01.63-.16.89-.45l1.07-1.27h.01v-.05h-.82l-.06.04-.89,1.05c-.12.12-.19.18-.26.21l-.21.04h-.18v-.04s-.01-1.26-.01-1.26ZM229.25,274.66s-.01-.04-.04-.04h-.85l-.04.04v1.7l.04.04h.85s.04-.01.04-.04v-1.7ZM225.06,274.88c-.12.13-.17.35-.17.62s.05.5.18.65c.1.13.3.21.54.23l.25.03h2.02s.05-.01.05-.05v-.35l-.05-.04h-1.62c-.13-.01-.23-.04-.27-.12-.04-.05-.06-.17-.06-.34,0-.16.03-.26.05-.32.05-.06.14-.1.27-.12h1.63s.05-.01.05-.04v-.38l-.05-.04-2.27.03c-.26.03-.44.1-.56.23"/>
      <path class="cls-15" d="M239.15,275.53l.17.03.32-.05-.04.17-.35.57c-.19.01-.3.04-.34.08-.04.04-.03.17.05.39l-.26.4-.67.79c-.14.17-.27.29-.4.32-.05.03-.09.06-.09.12,0,.06.03.14.1.23.06.09.16.16.25.19l.74.08c.4,0,.65-.04.75-.13.12-.09.23-.27.38-.56l.39-.89c.41.05.83.16,1.27.3.38.12.84.3,1.39.54l2.2,1.01c.13.05.22.08.28.08l.38-.16c.4-.19.83-.45,1.27-.75l.41-.32.04-.06s-.03-.04-.08-.05l-2.56-.43c-.65-.14-1.22-.28-1.68-.45l-.83-.25c1.05-.1,1.9-.23,2.59-.41.47-.12.87-.28,1.18-.48.31-.19.47-.39.48-.56,0-.1-.03-.17-.08-.23-.1-.16-.35-.27-.74-.36l-1.15-.16c-.83-.06-1.93-.06-3.29.01l-1.41.1h-.96c-.05-.01-.08.01-.1.04-.03.04-.01.09.01.14l.28.54c.01.08.05.13.1.17h0ZM240.62,275.98c.05-.26,0-.44-.13-.54l.74-.03,2.53.08c-.48.16-1.06.28-1.76.41l-1.4.22.03-.14Z"/>
      <path d="M227.93,276.98s0-.04-.03-.04h-2.98s-.05.01-.05.04l-.14.28s0,.04.03.04h1.09s.04.01.03.03l-.65,1.39s0,.04.03.04h.65l.05-.04.65-1.39.05-.03h1.09l.06-.04.13-.28Z"/>
      <path d="M231.4,276.94h-.71l-.08.03-1.36.89s-.04.01-.05-.01l-.49-.87-.06-.04h-.39s-.04.01-.03.04l.65,1.14v.06l-.25.53s0,.04.03.04h.65l.06-.04.23-.52.05-.06,1.76-1.17s.01-.03-.01-.03h0Z"/>
      <path d="M234.32,277.1c-.09-.1-.25-.16-.48-.16h-2.06s-.05.01-.06.04l-.8,1.74s-.01.04.03.04h.62s.06-.04.06-.04l.31-.66.06-.04h1.46c.45,0,.75-.18.91-.53.06-.16.05-.28-.05-.39h0ZM233.34,277.3c.12,0,.21.01.26.05.06.03.08.08.05.12-.08.16-.23.22-.49.22h-1.02s-.03-.01-.03-.04l.16-.31.05-.04h1.02Z"/>
      <path d="M237.35,277.3l.06-.04.13-.28s0-.04-.03-.04h-2.47l-.06.04-.8,1.74s0,.04.03.04h2.47s.06-.04.06-.04l.13-.3s0-.03-.03-.03h-1.75s-.04-.01-.03-.04l.13-.28s.04-.04.06-.04h1.59l.05-.04.14-.29s0-.04-.03-.04h-1.59s-.04-.01-.03-.04l.13-.28.06-.04h1.75Z"/>
    </g>
    <path class="cls-3" d="M150.17,272.74s14.01,3.35,16.16,3.05"/>
  </g>
  <g id="Cluster">
    <path class="cls-35" d="M599.96,72.13c-31.19-12.6-75.38-15.87-90.89-16.65C478.88,21.9,435.16.71,386.73.71h-192.52c-48.4,0-92.09,21.17-122.28,54.7v-.02S28.63,56.76,0,72.28v120.16l32.71.74h515.53c.08,0,.15-.02.23-.02l51.49-.87v-120.16Z"/>
    <circle class="cls-32" cx="453.76" cy="117.57" r="60.88"/>
    <g>
      <ellipse cx="156.23" cy="45.85" rx="10.17" ry="6.44"/>
      <ellipse cx="179.64" cy="41.44" rx="10.17" ry="6.44"/>
      <ellipse cx="202.49" cy="42.95" rx="10.17" ry="6.44"/>
      <ellipse cx="225.11" cy="42.95" rx="10.17" ry="6.44"/>
      <ellipse cx="192.32" cy="64.31" rx="10.17" ry="6.44"/>
      <ellipse cx="214.48" cy="64.31" rx="10.17" ry="6.44"/>
      <ellipse cx="208.21" cy="85.66" rx="10.17" ry="6.44"/>
      <ellipse cx="435.21" cy="46.6" rx="10.17" ry="6.44"/>
      <ellipse cx="411.81" cy="42.2" rx="10.17" ry="6.44"/>
      <ellipse cx="388.95" cy="43.71" rx="10.17" ry="6.44"/>
      <ellipse cx="366.33" cy="43.71" rx="10.17" ry="6.44"/>
      <ellipse cx="399.12" cy="65.06" rx="10.17" ry="6.44"/>
      <ellipse cx="376.96" cy="65.06" rx="10.17" ry="6.44"/>
      <ellipse cx="383.24" cy="86.41" rx="10.17" ry="6.44"/>
      <ellipse cx="375.87" cy="161.74" rx="10.17" ry="6.44"/>
    </g>
    <g>
      <circle class="cls-24" cx="358.32" cy="172.22" r="5.64"/>
      <path d="M356.28,173.62s-1.48-3.9,2.84-3.47l8.05,8.05-4.09,2.31-6.79-6.89Z"/>
      <circle class="cls-31" cx="364.79" cy="178.78" r="2.44"/>
    </g>
    <circle class="cls-32" cx="140.21" cy="115.97" r="60.88"/>
    <circle class="cls-32" cx="293.03" cy="105.31" r="75.09"/>
    <g>
      <rect class="cls-18" x="139.16" y="64.89" width="2.11" height="7.65"/>
      <rect class="cls-18" x="135.47" y="66.99" width="1.05" height="3.82" transform="translate(-5.49 12.12) rotate(-5)"/>
      <rect class="cls-18" x="131.29" y="67.54" width="1.05" height="3.82" transform="translate(-10.06 23.94) rotate(-10)"/>
      <rect class="cls-18" x="127.17" y="68.45" width="1.05" height="3.82" transform="translate(-13.86 35.45) rotate(-15)"/>
      <rect class="cls-18" x="123.14" y="69.72" width="1.05" height="3.82" transform="translate(-17.04 46.62) rotate(-20)"/>
      <rect class="cls-18" x="119.24" y="71.34" width="1.05" height="3.82" transform="translate(-19.74 57.48) rotate(-25)"/>
      <rect class="cls-18" x="111.94" y="75.55" width="1.05" height="3.82" transform="translate(-24.09 78.52) rotate(-35)"/>
      <rect class="cls-18" x="108.59" y="78.12" width="1.05" height="3.82" transform="translate(-25.92 88.86) rotate(-40)"/>
      <rect class="cls-18" x="105.48" y="80.98" width="1.05" height="3.82" transform="translate(-27.56 99.23) rotate(-45)"/>
      <rect class="cls-18" x="102.63" y="84.09" width="1.05" height="3.82" transform="translate(-29.03 109.74) rotate(-50)"/>
      <rect class="cls-18" x="100.06" y="87.44" width="1.05" height="3.82" transform="translate(-30.3 120.49) rotate(-55)"/>
      <rect class="cls-18" x="95.84" y="94.74" width="1.05" height="3.82" transform="translate(-31.96 143.14) rotate(-65)"/>
      <rect class="cls-18" x="94.22" y="98.64" width="1.05" height="3.82" transform="translate(-32.14 155.2) rotate(-70)"/>
      <rect class="cls-18" x="92.96" y="102.66" width="1.05" height="3.82" transform="translate(-31.73 167.81) rotate(-75)"/>
      <rect class="cls-18" x="92.04" y="106.78" width="1.05" height="3.82" transform="translate(-30.55 180.98) rotate(-80)"/>
      <rect class="cls-18" x="91.49" y="110.97" width="1.05" height="3.82" transform="translate(-28.45 194.71) rotate(-85)"/>
      <rect class="cls-18" x="91.49" y="119.4" width="1.05" height="3.82" transform="translate(-20.82 223.56) rotate(-95)"/>
      <rect class="cls-18" x="92.04" y="123.59" width="1.05" height="3.82" transform="translate(-14.95 238.45) rotate(-100)"/>
      <rect class="cls-18" x="92.96" y="127.71" width="1.05" height="3.82" transform="translate(-7.53 253.46) rotate(-105)"/>
      <rect class="cls-18" x="94.22" y="131.73" width="1.05" height="3.82" transform="translate(1.57 268.39) rotate(-110)"/>
      <rect class="cls-18" x="95.84" y="135.63" width="1.05" height="3.82" transform="translate(12.43 283.01) rotate(-115)"/>
      <rect class="cls-18" x="183.54" y="135.63" width="1.05" height="3.82" transform="translate(386.51 28.86) rotate(115)"/>
      <rect class="cls-18" x="185.15" y="131.73" width="1.05" height="3.82" transform="translate(374.77 4.87) rotate(110)"/>
      <rect class="cls-18" x="186.42" y="127.71" width="1.05" height="3.82" transform="translate(360.54 -17.41) rotate(105)"/>
      <rect class="cls-18" x="187.33" y="123.59" width="1.05" height="3.82" transform="translate(344.08 -37.71) rotate(100)"/>
      <rect class="cls-18" x="187.89" y="119.4" width="1.05" height="3.82" transform="translate(325.69 -55.81) rotate(95)"/>
      <rect class="cls-18" x="187.89" y="110.97" width="1.05" height="3.82" transform="translate(284.44 -84.65) rotate(85)"/>
      <rect class="cls-18" x="187.33" y="106.78" width="1.05" height="3.82" transform="translate(262.28 -95.18) rotate(80)"/>
      <rect class="cls-18" x="186.42" y="102.66" width="1.05" height="3.82" transform="translate(239.57 -103.07) rotate(75)"/>
      <rect class="cls-18" x="185.15" y="98.64" width="1.05" height="3.82" transform="translate(216.66 -108.32) rotate(70)"/>
      <rect class="cls-18" x="183.54" y="94.74" width="1.05" height="3.82" transform="translate(193.87 -111.01) rotate(65)"/>
      <rect class="cls-18" x="179.32" y="87.44" width="1.05" height="3.82" transform="translate(149.88 -109.22) rotate(55)"/>
      <rect class="cls-18" x="176.75" y="84.09" width="1.05" height="3.82" transform="translate(129.2 -105.08) rotate(50)"/>
      <rect class="cls-18" x="173.9" y="80.98" width="1.05" height="3.82" transform="translate(109.7 -99.06) rotate(45)"/>
      <rect class="cls-18" x="170.79" y="78.12" width="1.05" height="3.82" transform="translate(91.53 -91.39) rotate(40)"/>
      <rect class="cls-18" x="167.44" y="75.55" width="1.05" height="3.82" transform="translate(74.81 -82.33) rotate(35)"/>
      <rect class="cls-18" x="160.13" y="71.34" width="1.05" height="3.82" transform="translate(46.01 -61.04) rotate(25)"/>
      <rect class="cls-18" x="156.24" y="69.72" width="1.05" height="3.82" transform="translate(33.95 -49.3) rotate(20)"/>
      <rect class="cls-18" x="152.21" y="68.45" width="1.05" height="3.82" transform="translate(23.42 -37.13) rotate(15)"/>
      <rect class="cls-18" x="148.09" y="67.54" width="1.05" height="3.82" transform="translate(14.32 -24.75) rotate(10)"/>
      <rect class="cls-18" x="143.9" y="66.99" width="1.05" height="3.82" transform="translate(6.55 -12.33) rotate(5)"/>
      <rect class="cls-18" x="114.97" y="71.37" width="2.11" height="7.65" transform="translate(-22.06 68.09) rotate(-30)"/>
      <rect class="cls-18" x="97.26" y="89.08" width="2.11" height="7.65" transform="translate(-31.3 131.6) rotate(-60)"/>
      <rect class="cls-18" x="90.78" y="113.27" width="2.11" height="7.65" transform="translate(-25.27 208.93) rotate(-90)"/>
      <rect class="cls-18" x="97.26" y="137.46" width="2.11" height="7.65" transform="translate(25.11 297.08) rotate(-120)"/>
      <rect class="cls-18" x="163.35" y="71.37" width="2.11" height="7.65" transform="translate(59.63 -72.13) rotate(30)"/>
      <rect class="cls-18" x="181.06" y="89.08" width="2.11" height="7.65" transform="translate(171.52 -111.26) rotate(60)"/>
      <rect class="cls-18" x="187.54" y="113.27" width="2.11" height="7.65" transform="translate(305.69 -71.5) rotate(90)"/>
    </g>
    <g>
      <rect class="cls-27" x="167.27" y="154.67" width="1.05" height="3.82" transform="translate(394.81 190.26) rotate(145.42)"/>
      <rect class="cls-27" x="170.63" y="152.12" width="1.05" height="3.82" transform="translate(401.22 163.69) rotate(140.42)"/>
      <rect class="cls-27" x="173.77" y="149.29" width="1.05" height="3.82" transform="translate(404.57 136.56) rotate(135.42)"/>
      <rect class="cls-27" x="176.64" y="146.2" width="1.05" height="3.82" transform="translate(404.8 109.27) rotate(130.42)"/>
      <rect class="cls-27" x="179.23" y="142.87" width="1.05" height="3.82" transform="translate(401.93 82.2) rotate(125.42)"/>
      <rect class="cls-27" x="181" y="137.42" width="2.11" height="7.65" transform="translate(396.03 55.76) rotate(120.42)"/>
      <rect class="cls-27" x="163.16" y="155" width="2.11" height="7.65" transform="translate(385.43 215.87) rotate(150.42)"/>
    </g>
    <g>
      <rect class="cls-18" x="293.01" y="34.11" width="2.72" height="9.88"/>
      <rect class="cls-18" x="288.24" y="36.81" width="1.36" height="4.94" transform="translate(-2.32 25.33) rotate(-5)"/>
      <rect class="cls-18" x="282.84" y="37.53" width="1.36" height="4.94" transform="translate(-2.64 49.84) rotate(-10)"/>
      <rect class="cls-18" x="277.52" y="38.7" width="1.36" height="4.94" transform="translate(-1.18 73.41) rotate(-15)"/>
      <rect class="cls-18" x="272.32" y="40.34" width="1.36" height="4.94" transform="translate(1.82 95.95) rotate(-20)"/>
      <rect class="cls-18" x="267.29" y="42.43" width="1.36" height="4.94" transform="translate(6.13 117.45) rotate(-25)"/>
      <rect class="cls-18" x="257.86" y="47.87" width="1.36" height="4.94" transform="translate(17.88 157.4) rotate(-35)"/>
      <rect class="cls-18" x="253.53" y="51.19" width="1.36" height="4.94" transform="translate(24.98 175.96) rotate(-40)"/>
      <rect class="cls-18" x="249.52" y="54.87" width="1.36" height="4.94" transform="translate(32.73 193.71) rotate(-45)"/>
      <rect class="cls-18" x="245.83" y="58.89" width="1.36" height="4.94" transform="translate(41.05 210.76) rotate(-50)"/>
      <rect class="cls-18" x="242.52" y="63.21" width="1.36" height="4.94" transform="translate(49.9 227.22) rotate(-55)"/>
      <rect class="cls-18" x="237.07" y="72.64" width="1.36" height="4.94" transform="translate(69.2 258.85) rotate(-65)"/>
      <rect class="cls-18" x="234.99" y="77.68" width="1.36" height="4.94" transform="translate(79.75 274.19) rotate(-70)"/>
      <rect class="cls-18" x="233.35" y="82.88" width="1.36" height="4.94" transform="translate(91.02 289.31) rotate(-75)"/>
      <rect class="cls-18" x="232.17" y="88.2" width="1.36" height="4.94" transform="translate(103.13 304.23) rotate(-80)"/>
      <rect class="cls-18" x="231.46" y="93.6" width="1.36" height="4.94" transform="translate(116.2 318.95) rotate(-85)"/>
      <rect class="cls-18" x="231.46" y="104.49" width="1.36" height="4.94" transform="translate(145.82 347.53) rotate(-95)"/>
      <rect class="cls-18" x="232.17" y="109.89" width="1.36" height="4.94" transform="translate(162.63 361.18) rotate(-100)"/>
      <rect class="cls-18" x="233.35" y="115.21" width="1.36" height="4.94" transform="translate(180.93 374.19) rotate(-105)"/>
      <rect class="cls-18" x="234.99" y="120.41" width="1.36" height="4.94" transform="translate(200.8 386.36) rotate(-110)"/>
      <rect class="cls-18" x="237.07" y="125.45" width="1.36" height="4.94" transform="translate(222.3 397.45) rotate(-115)"/>
      <rect class="cls-18" x="350.3" y="125.45" width="1.36" height="4.94" transform="translate(615.25 -136.13) rotate(115)"/>
      <rect class="cls-18" x="352.39" y="120.41" width="1.36" height="4.94" transform="translate(589.3 -166.87) rotate(110)"/>
      <rect class="cls-18" x="354.03" y="115.21" width="1.36" height="4.94" transform="translate(560.19 -194.48) rotate(105)"/>
      <rect class="cls-18" x="355.21" y="109.89" width="1.36" height="4.94" transform="translate(528.34 -218.61) rotate(100)"/>
      <rect class="cls-18" x="355.92" y="104.49" width="1.36" height="4.94" transform="translate(494.23 -238.96) rotate(95)"/>
      <rect class="cls-18" x="355.92" y="93.6" width="1.36" height="4.94" transform="translate(421.22 -267.55) rotate(85)"/>
      <rect class="cls-18" x="355.21" y="88.2" width="1.36" height="4.94" transform="translate(383.38 -275.56) rotate(80)"/>
      <rect class="cls-18" x="354.03" y="82.88" width="1.36" height="4.94" transform="translate(345.34 -279.37) rotate(75)"/>
      <rect class="cls-18" x="352.39" y="77.68" width="1.36" height="4.94" transform="translate(307.63 -279.04) rotate(70)"/>
      <rect class="cls-18" x="350.3" y="72.64" width="1.36" height="4.94" transform="translate(270.73 -274.73) rotate(65)"/>
      <rect class="cls-18" x="344.86" y="63.21" width="1.36" height="4.94" transform="translate(201.15 -255.04) rotate(55)"/>
      <rect class="cls-18" x="341.54" y="58.89" width="1.36" height="4.94" transform="translate(169.25 -240.24) rotate(50)"/>
      <rect class="cls-18" x="337.86" y="54.87" width="1.36" height="4.94" transform="translate(139.7 -222.59) rotate(45)"/>
      <rect class="cls-18" x="333.84" y="51.19" width="1.36" height="4.94" transform="translate(112.76 -202.47) rotate(40)"/>
      <rect class="cls-18" x="329.52" y="47.87" width="1.36" height="4.94" transform="translate(88.59 -180.29) rotate(35)"/>
      <rect class="cls-18" x="320.09" y="42.43" width="1.36" height="4.94" transform="translate(49.03 -131.36) rotate(25)"/>
      <rect class="cls-18" x="315.05" y="40.34" width="1.36" height="4.94" transform="translate(33.68 -105.41) rotate(20)"/>
      <rect class="cls-18" x="309.86" y="38.7" width="1.36" height="4.94" transform="translate(21.24 -78.97) rotate(15)"/>
      <rect class="cls-18" x="304.54" y="37.53" width="1.36" height="4.94" transform="translate(11.58 -52.39) rotate(10)"/>
      <rect class="cls-18" x="299.13" y="36.81" width="1.36" height="4.94" transform="translate(4.56 -25.98) rotate(5)"/>
      <rect class="cls-18" x="261.77" y="42.48" width="2.72" height="9.88" transform="translate(11.55 137.92) rotate(-30)"/>
      <rect class="cls-18" x="238.91" y="65.34" width="2.72" height="9.88" transform="translate(59.27 243.22) rotate(-60)"/>
      <rect class="cls-18" x="230.54" y="96.58" width="2.72" height="9.88" transform="translate(130.38 333.41) rotate(-90)"/>
      <rect class="cls-18" x="238.91" y="127.81" width="2.72" height="9.88" transform="translate(245.44 407.2) rotate(-120)"/>
      <rect class="cls-18" x="324.24" y="42.48" width="2.72" height="9.88" transform="translate(67.33 -156.45) rotate(30)"/>
      <rect class="cls-18" x="347.11" y="65.34" width="2.72" height="9.88" transform="translate(235.1 -266.64) rotate(60)"/>
      <rect class="cls-18" x="355.48" y="96.58" width="2.72" height="9.88" transform="translate(458.35 -255.32) rotate(90)"/>
      <rect class="cls-18" x="347.11" y="127.81" width="2.72" height="9.88" transform="translate(637.67 -102.66) rotate(120)"/>
    </g>
    <g>
      <rect class="cls-18" x="329.43" y="150.34" width="1.36" height="4.94" transform="translate(688.02 87.79) rotate(144.86)"/>
      <rect class="cls-18" x="333.75" y="147.02" width="1.36" height="4.94" transform="translate(686.46 48.19) rotate(139.86)"/>
      <rect class="cls-18" x="337.76" y="143.32" width="1.36" height="4.94" transform="translate(680.52 8.76) rotate(134.86)"/>
      <rect class="cls-18" x="341.43" y="139.3" width="1.36" height="4.94" transform="translate(670.21 -29.96) rotate(129.86)"/>
      <rect class="cls-18" x="344.74" y="134.97" width="1.36" height="4.94" transform="translate(655.63 -67.42) rotate(124.86)"/>
      <rect class="cls-18" x="346.97" y="127.89" width="2.72" height="9.88" transform="translate(636.98 -103.1) rotate(119.86)"/>
      <rect class="cls-18" x="324.16" y="150.81" width="2.72" height="9.88" transform="translate(685.24 127.02) rotate(149.86)"/>
    </g>
    <rect class="cls-18" x="423.86" y="143.36" width=".91" height="3.29" transform="translate(808.14 -86.83) rotate(130)"/>
    <rect class="cls-18" x="426.07" y="140.48" width=".91" height="3.29" transform="translate(787.59 -125.74) rotate(125)"/>
    <rect class="cls-18" x="428.02" y="137.42" width=".91" height="3.29" transform="translate(763.15 -162.47) rotate(120)"/>
    <rect class="cls-18" x="429.7" y="134.21" width=".91" height="3.29" transform="translate(735.06 -196.59) rotate(115)"/>
    <rect class="cls-18" x="431.08" y="130.85" width=".91" height="3.29" transform="translate(703.64 -227.7) rotate(110)"/>
    <rect class="cls-18" x="432.96" y="123.85" width=".91" height="3.29" transform="translate(632.26 -279.54) rotate(100)"/>
    <rect class="cls-18" x="433.43" y="120.25" width=".91" height="3.29" transform="translate(593.14 -299.72) rotate(95)"/>
    <rect class="cls-18" x="433.59" y="116.63" width=".91" height="3.29" transform="translate(552.32 -315.77) rotate(90)"/>
    <rect class="cls-18" x="433.43" y="113" width=".91" height="3.29" transform="translate(510.28 -327.58) rotate(85)"/>
    <rect class="cls-18" x="432.96" y="109.41" width=".91" height="3.29" transform="translate(467.51 -335.06) rotate(80)"/>
    <rect class="cls-18" x="431.08" y="102.4" width=".91" height="3.29" transform="translate(381.71 -337.05) rotate(70)"/>
    <rect class="cls-18" x="429.7" y="99.05" width=".91" height="3.29" transform="translate(339.62 -331.71) rotate(65)"/>
    <rect class="cls-18" x="428.02" y="95.83" width=".91" height="3.29" transform="translate(298.65 -322.33) rotate(60)"/>
    <rect class="cls-18" x="426.07" y="92.77" width=".91" height="3.29" transform="translate(259.22 -309.13) rotate(55)"/>
    <rect class="cls-18" x="423.86" y="89.89" width=".91" height="3.29" transform="translate(221.69 -292.35) rotate(50)"/>
    <rect class="cls-18" x="420.96" y="85.57" width="1.81" height="6.58" transform="translate(186.39 -272.28) rotate(45)"/>
    <rect class="cls-18" x="431.72" y="104.22" width="1.81" height="6.58" transform="translate(424.5 -338.2) rotate(75)"/>
    <rect class="cls-18" x="431.72" y="125.75" width="1.81" height="6.58" transform="translate(669.24 -255.45) rotate(105)"/>
    <rect class="cls-27" x="420.96" y="144.39" width="1.81" height="6.58" transform="translate(824.59 -46.19) rotate(135)"/>
    <g>
      <rect class="cls-18" x="480.82" y="142.09" width=".91" height="3.29" transform="translate(282.02 -317.33) rotate(50)"/>
      <rect class="cls-18" x="478.61" y="139.21" width=".91" height="3.29" transform="translate(319.66 -332.36) rotate(55)"/>
      <rect class="cls-18" x="476.66" y="136.15" width=".91" height="3.29" transform="translate(357.89 -344.29) rotate(60)"/>
      <rect class="cls-18" x="474.98" y="132.93" width=".91" height="3.29" transform="translate(396.47 -353.19) rotate(65)"/>
      <rect class="cls-18" x="473.59" y="129.58" width=".91" height="3.29" transform="translate(435.22 -359.12) rotate(70)"/>
      <rect class="cls-18" x="471.72" y="122.57" width=".91" height="3.29" transform="translate(512.51 -362.35) rotate(80)"/>
      <rect class="cls-18" x="471.24" y="118.98" width=".91" height="3.29" transform="translate(550.75 -359.79) rotate(85)"/>
      <rect class="cls-18" x="471.09" y="115.35" width=".91" height="3.29" transform="translate(588.53 -354.54) rotate(90)"/>
      <rect class="cls-18" x="471.24" y="111.73" width=".91" height="3.29" transform="translate(625.75 -346.65) rotate(95)"/>
      <rect class="cls-18" x="471.72" y="108.13" width=".91" height="3.29" transform="translate(662.27 -336.16) rotate(100)"/>
      <rect class="cls-18" x="473.59" y="101.13" width=".91" height="3.29" transform="translate(732.75 -307.54) rotate(110)"/>
      <rect class="cls-18" x="474.98" y="97.77" width=".91" height="3.29" transform="translate(766.47 -289.46) rotate(115)"/>
      <rect class="cls-18" x="476.66" y="94.56" width=".91" height="3.29" transform="translate(798.98 -268.89) rotate(120)"/>
      <rect class="cls-18" x="478.61" y="91.49" width=".91" height="3.29" transform="translate(830.13 -245.86) rotate(125)"/>
      <rect class="cls-18" x="480.82" y="88.62" width=".91" height="3.29" transform="translate(859.77 -220.4) rotate(130)"/>
      <rect class="cls-27" x="482.82" y="84.3" width="1.81" height="6.58" transform="translate(887.69 -192.53) rotate(135)"/>
      <rect class="cls-18" x="472.05" y="102.94" width="1.81" height="6.58" transform="translate(697.98 -323.12) rotate(105)"/>
      <rect class="cls-18" x="472.05" y="124.47" width="1.81" height="6.58" transform="translate(473.95 -362.15) rotate(75)"/>
      <rect class="cls-18" x="482.82" y="143.12" width="1.81" height="6.58" transform="translate(245.2 -299.16) rotate(45)"/>
    </g>
    <g>
      <circle class="cls-30" cx="140.21" cy="117.57" r="7.94"/>
      <path class="cls-17" d="M154.15,107.23s3.47-.08,1.99,4.15c-10.55,5.68-60.96,32.16-60.96,32.16l-4.45.25,1.53-3.86,61.9-32.71Z"/>
    </g>
    <g>
      <circle class="cls-30" cx="294.53" cy="104.5" r="7.94"/>
      <path class="cls-17" d="M308.08,94.17s4.05-.1,2.32,4.84c-12.29,6.62-71.05,37.47-71.05,37.47l-5.18.3,1.78-4.49,72.13-38.11Z"/>
    </g>
    <text class="cls-20" transform="translate(488.44 85.28)"><tspan x="0" y="0">H</tspan></text>
    <text class="cls-19" transform="translate(410.67 85.26)"><tspan x="0" y="0">F</tspan></text>
    <text class="cls-19" transform="translate(486.85 156.41)"><tspan x="0" y="0">C</tspan></text>
    <text class="cls-19" transform="translate(411.02 156.41)"><tspan x="0" y="0">E</tspan></text>
    <text class="cls-19" transform="translate(247.07 142.2)"><tspan x="0" y="0">0</tspan></text>
    <text class="cls-19" transform="translate(240.82 106.41)"><tspan x="0" y="0">20</tspan></text>
    <text class="cls-19" transform="translate(98.32 121.4)"><tspan x="0" y="0">1</tspan></text>
    <text class="cls-19" transform="translate(104.8 100.85)"><tspan x="0" y="0">2</tspan></text>
    <text class="cls-19" transform="translate(117.18 88.95)"><tspan x="0" y="0">3</tspan></text>
    <text class="cls-19" transform="translate(136.87 83.56)"><tspan x="0" y="0">4</tspan></text>
    <text class="cls-19" transform="translate(156.76 88.95)"><tspan x="0" y="0">5</tspan></text>
    <text class="cls-19" transform="translate(170.79 102.18)"><tspan x="0" y="0">7</tspan></text>
    <text class="cls-19" transform="translate(174.43 120.05)"><tspan x="0" y="0">8</tspan></text>
    <text class="cls-28" transform="translate(171.18 141.74)"><tspan x="0" y="0">9</tspan></text>
    <text class="cls-28" transform="translate(152.12 153.13)"><tspan x="0" y="0">10</tspan></text>
    <text class="cls-19" transform="translate(263.92 63.73)"><tspan x="0" y="0">60</tspan></text>
    <text class="cls-19" transform="translate(247.31 80.02)"><tspan x="0" y="0">40</tspan></text>
    <text class="cls-19" transform="translate(287.88 54.84)"><tspan x="0" y="0">80</tspan></text>
    <text class="cls-19" transform="translate(310.54 62.69)"><tspan x="0" y="0">100</tspan></text>
    <text class="cls-19" transform="translate(324.28 81.06)"><tspan x="0" y="0">120</tspan></text>
    <text class="cls-19" transform="translate(328.06 105.79)"><tspan x="0" y="0">140</tspan></text>
    <text class="cls-19" transform="translate(321.41 130.52)"><tspan x="0" y="0">160</tspan></text>
    <text class="cls-19" transform="translate(308.85 148.16)"><tspan x="0" y="0">180</tspan></text>
    <g>
      <circle class="cls-30" cx="499.18" cy="118.46" r="3.52"/>
      <path class="cls-17" d="M506.64,117.31s1.6.82-.12,2.37c-6.18-.03-35.57-.47-35.57-.47l-2.08-.98,1.64-1.37,36.13.45Z"/>
    </g>
    <g>
      <circle class="cls-30" cx="411.58" cy="118.79" r="3.52"/>
      <path class="cls-17" d="M401.67,125.93s-.64,1.67,1.67,1.69c4.59-4.15,26.19-24.07,26.19-24.07l.89-2.12-2.14.07-26.62,24.43Z"/>
    </g>
    <g>
      <path class="cls-13" d="M288,158.53l-.08-.08h-1.7s-.05.05-.05.08v3.32c0,.05.03.08.05.08h1.7l.08-.08v-3.32ZM288.96,158.96c-.23.25-.35.68-.35,1.22s.13.99.35,1.27c.23.25.58.41,1.09.46l4.43.05.08-.1v-.68l-.08-.08h-3.16c-.28-.03-.46-.08-.53-.23-.08-.1-.13-.33-.13-.66,0-.3.05-.51.1-.63.1-.13.25-.2.53-.23h3.19c.05,0,.08-.03.08-.08v-.73l-.08-.08-4.43.05c-.51.05-.86.2-1.09.46M280.86,158.53l-.08-.08h-1.72l-.08.08v3.32s.08.08.08.08h2.68c.66-.03,1.24-.3,1.75-.89l2.1-2.48.03-.03v-.03l-.03-.05h-1.57l-.13.08-1.75,2.05c-.23.23-.38.35-.51.4l-.41.08h-.35l-.03-.08v-2.46ZM278.18,158.53s-.03-.08-.08-.08h-1.67l-.08.08v3.32l.08.08h1.67c.05,0,.08-.03.08-.08v-3.32ZM269.98,158.96c-.23.25-.33.68-.33,1.22s.1.99.35,1.27c.2.25.58.41,1.06.46l.48.05h3.95c.08,0,.1-.03.1-.1v-.68l-.1-.08h-3.16c-.25-.03-.46-.08-.53-.23-.08-.1-.13-.33-.13-.66,0-.3.05-.51.1-.63.1-.13.28-.2.53-.23h3.19c.08,0,.1-.03.1-.08v-.73l-.1-.08-4.43.05c-.51.05-.86.2-1.09.46"/>
      <path class="cls-15" d="M297.52,160.23l.33.05.63-.1-.08.33-.68,1.11c-.38.03-.58.08-.66.15-.08.08-.05.33.1.76l-.51.78-1.32,1.54c-.28.33-.53.56-.78.63-.1.05-.18.13-.18.23,0,.13.05.28.2.46.13.18.3.3.48.38l1.44.15c.78,0,1.27-.08,1.47-.25.23-.18.46-.53.73-1.09l.76-1.75c.81.1,1.62.3,2.48.58.73.23,1.65.58,2.71,1.06l4.3,1.97c.25.1.43.15.56.15l.73-.3c.78-.38,1.62-.89,2.48-1.47l.81-.63.08-.13c0-.05-.05-.08-.15-.1l-5.01-.84c-1.27-.28-2.38-.56-3.29-.89l-1.62-.48c2.05-.2,3.72-.46,5.06-.81.91-.23,1.7-.56,2.3-.94.61-.38.91-.76.94-1.09,0-.2-.05-.33-.15-.46-.2-.3-.68-.53-1.44-.71l-2.25-.3c-1.62-.13-3.77-.13-6.43.03l-2.76.2-1.87-.03c-.1,0-.15.05-.2.1-.05.08-.03.18.03.28l.56,1.06c.03.15.1.25.2.33h0ZM300.4,161.11c.1-.51,0-.86-.25-1.06l1.44-.05,4.94.15c-.94.3-2.08.56-3.44.81l-2.73.43.05-.28Z"/>
      <path class="cls-18" d="M275.6,163.06c.03-.05,0-.08-.05-.08h-5.82c-.05,0-.1.03-.1.08l-.28.56c0,.05,0,.08.05.08h2.13c.05,0,.08.03.05.05l-1.27,2.71c0,.05,0,.08.05.08h1.27l.1-.08,1.27-2.71.1-.05h2.13l.13-.08.25-.56Z"/>
      <path class="cls-18" d="M282.38,162.99h-1.39l-.15.05-2.66,1.75c-.03.05-.08.03-.1-.03l-.96-1.7-.13-.08h-.76c-.05,0-.08.03-.05.08l1.27,2.23v.13l-.48,1.04c0,.05,0,.08.05.08h1.27l.13-.08.46-1.01.1-.13,3.44-2.28q.03-.05-.03-.05h0Z"/>
      <path class="cls-18" d="M288.08,163.29c-.18-.2-.48-.3-.94-.3h-4.02c-.08,0-.1.03-.13.08l-1.57,3.39c-.05.05-.03.08.05.08h1.21s.13-.08.13-.08l.61-1.29.13-.08h2.86c.89,0,1.47-.35,1.77-1.04.13-.3.1-.56-.1-.76h0ZM286.18,163.7c.23,0,.41.03.51.1.13.05.15.15.1.23-.15.3-.46.43-.96.43h-2c-.05,0-.05-.03-.05-.08l.3-.61.1-.08h2Z"/>
      <path class="cls-18" d="M294,163.7l.13-.08.25-.56c.03-.05,0-.08-.05-.08h-4.83l-.13.08-1.57,3.39c-.03.05,0,.08.05.08h4.83s.13-.08.13-.08l.25-.58s0-.05-.05-.05h-3.42c-.05,0-.08-.03-.05-.08l.25-.56s.07-.08.13-.08h3.11l.1-.08.28-.56c0-.05,0-.08-.05-.08h-3.11c-.08,0-.08-.03-.05-.08l.25-.56.13-.08h3.42Z"/>
    </g>
  </g>
</svg>