<?xml version="1.0" encoding="UTF-8"?>
<svg id="Layer_1" xmlns="http://www.w3.org/2000/svg" version="1.1" viewBox="0 0 600.3 301.5">
  <!-- Generator: Adobe Illustrator 29.1.0, SVG Export Plug-In . SVG Version: 2.1.0 Build 142)  -->
  <defs>
    <style>
      .st0, .st1, .st2 {
        fill: none;
      }

      .st3 {
        fill: #f4f460;
      }

      .st4, .st5 {
        fill: #716e6f;
      }

      .st6, .st7, .st8, .st9, .st10 {
        fill: #fff;
      }

      .st6, .st11, .st12, .st10 {
        isolation: isolate;
      }

      .st6, .st12 {
        font-family: ArialMT, Arial;
      }

      .st6, .st12, .st10 {
        font-size: 12px;
      }

      .st7, .st13, .st5, .st14, .st15 {
        fill-rule: evenodd;
      }

      .st16 {
        fill: #e1dfdf;
      }

      .st16, .st1, .st17, .st18, .st19, .st20, .st2, .st21, .st9, .st22, .st23 {
        stroke-miterlimit: 10;
      }

      .st16, .st17, .st18, .st19, .st20, .st2, .st21, .st22, .st23 {
        stroke: #000;
      }

      .st24 {
        fill: #232323;
      }

      .st13 {
        fill: #c03c2f;
      }

      .st25 {
        fill: #231f20;
      }

      .st26 {
        fill: #8e8e8e;
      }

      .st27 {
        fill: #847e85;
      }

      .st28 {
        fill: #666766;
      }

      .st1, .st9 {
        stroke: #231f20;
      }

      .st17, .st12, .st29 {
        fill: #ed2024;
      }

      .st30 {
        fill: #dbd5d7;
      }

      .st18 {
        fill: #d77a28;
      }

      .st19 {
        fill: #4c4741;
      }

      .st31 {
        fill: #c4c4c4;
      }

      .st32 {
        fill: #c2c1c0;
      }

      .st33 {
        fill: #333031;
      }

      .st34 {
        fill: #565656;
      }

      .st20 {
        fill: #847a88;
      }

      .st21 {
        fill: #e4e4e9;
      }

      .st35 {
        fill: #282828;
      }

      .st10 {
        font-family: DINAlternate-Bold, 'DIN Alternate';
        font-weight: 700;
      }

      .st36 {
        fill: red;
      }

      .st37 {
        fill: #d2d1d0;
      }

      .st38 {
        fill: #cd2027;
      }

      .st22 {
        fill: #e6e2e5;
      }

      .st39 {
        fill: #f0edf6;
      }

      .st15 {
        fill: #c5ac2f;
      }

      .st23 {
        fill: #d4d0d0;
      }
    </style>
  </defs>
  <g id="BG">
    <rect class="st28" x="0" width="602.2" height="301.5"/>
  </g>
  <g id="Wheels">
    <g>
      <path class="st25" d="M362,278c0,12.2,9.9,20.7,22.1,20.7s22.1-8.5,22.1-20.7-9.9-22.1-22.1-22.1-22.1,9.9-22.1,22.1Z"/>
      <circle class="st26" cx="384.2" cy="277.6" r="10"/>
      <path class="st17" d="M392.6,270.2l-2,2.9c0,8.1-.2,8.9-.2,8.9l2.2,2.9s5.9-7.4,0-14.6h0Z"/>
      <path class="st30" d="M368.3,278c0,8.8,7.1,15.8,15.8,15.8s15.8-7.1,15.8-15.8-7.1-15.8-15.8-15.8-15.8,7.1-15.8,15.8ZM374,270.6l1.3-1.6,2.2-1.7,2.2-1.2c.9,7.9-.4,6-5.7,4.5h0ZM390.6,267.6c-5.9,5.3-5.1,3.1-7-2h2.1c0,.1,2.7.9,2.7.9l2.2,1.1h0ZM395.5,279.6l-.4,2.1-1.2,2.5-1.4,2c-4.3-6.6-2.4-5.5,3.1-6.6h0ZM392.3,269.9l1.4,1.6,1.2,2.5.7,2.4c-7.9-.7-5.8-1.6-3.3-6.5h0ZM382.7,289.5c2.8-7.4,3.1-5.2,7.1-1.5l-1.9.9-2.8.5h-2.5ZM374.1,283.7c7.7-1.9,6-.4,5.2,5.1l-1.8-1.1-2-2-1.4-2ZM372.4,280.7l-.5-2v-2.8s.5-2.4.5-2.4c6.7,4.2,4.5,4,0,7.3Z"/>
      <circle class="st37" cx="384.2" cy="277.6" r="2.2"/>
    </g>
    <g>
      <path class="st25" d="M213.2,279.4c0,12.2-9.9,20.7-22.1,20.7s-22.1-8.5-22.1-20.7,9.9-22.1,22.1-22.1,22.1,9.9,22.1,22.1Z"/>
      <circle class="st26" cx="191.1" cy="279.1" r="10"/>
      <path class="st17" d="M182.7,271.6l2,2.9c0,8.1.2,8.9.2,8.9l-2.2,2.9s-5.9-7.4,0-14.6h0Z"/>
      <path class="st30" d="M191.1,263.5c-8.8,0-15.8,7.1-15.8,15.8s7.1,15.8,15.8,15.8,15.8-7.1,15.8-15.8-7.1-15.8-15.8-15.8ZM195.6,267.5l2.2,1.2,2.2,1.7,1.3,1.6c-5.3,1.5-6.6,3.3-5.7-4.5h0ZM187,267.9l2.7-.8h2.1c-1.9,5.1-1.1,7.2-7,1.9l2.2-1.1h0ZM182.9,287.6l-1.4-2-1.2-2.5-.4-2.1c5.4,1.1,7.4,0,3.1,6.6h0ZM179.7,277.7l.7-2.4,1.2-2.5,1.4-1.6c2.5,4.9,4.6,5.8-3.3,6.5h0ZM190.1,290.8l-2.8-.5-1.9-.9c4.1-3.7,4.4-6,7.1,1.5h-2.5ZM199.7,287.1l-2,2-1.8,1.1c-.8-5.5-2.4-7,5.2-5.1l-1.4,2ZM202.9,274.8l.4,2.4v2.8s-.4,2-.4,2c-4.4-3.3-6.7-3.1,0-7.3Z"/>
      <path class="st37" d="M193.3,279c0,1.2-1,2.2-2.2,2.2s-2.2-1-2.2-2.2,1-2.2,2.2-2.2,2.2,1,2.2,2.2Z"/>
    </g>
  </g>
  <g id="Shell">
    <g>
      <path class="st32" d="M151.6,282.3h15.5c.6,0,1.1.5,1.1,1.1v3.5c0,.6-.5,1.1-1.1,1.1h-15.5v-5.7h0Z"/>
      <rect class="st32" x="148.2" y="283" width="5" height="4.3"/>
    </g>
    <path class="st9" d="M410.4,287.7s-.8-23.4-10.4-28.9-26-5.6-33.2,3.3c-7.2,8.9-8.3,13-9.3,24.9-18.3-.2-141.3.3-141.3.3v-5.7c.1,0-.5-16.7-12-23.3-11.6-6.6-25.8-.6-25.8-.6,0,0-13.6,6.2-12,25.4-11.9-1-14.4-2.3-14.4-2.3,0,0-1.7-3.1-1.8-6.5-1.1-3.3,0-1.7,0-1.7l-1.5-2.4s-1.1-8.8,0-10.6,5.6-2,6.6-3.1c0-2.6-.4-3.4-.4-3.4,0,0-.3-8.4-.3-13,0-1.6.5-3.2,1.5-4.6,1.8-2.6,3.6-4.7,3.6-4.7,0,0,41.3-24,44.2-24.6h3.2l1.2-.6s78.3-4,90.7,3c12.4,6.9,51,27.3,51,27.3l5.8-.6s63.5,9.6,67.7,16.2c4.3,6.6,3.3,7.7,3.3,7.7l6.3,2.7c.5,6.3,0,8.6,0,8.6,0,0-1.8,6.5-3.4,7.9l.4,3,.9,2.1s-1.1,2.1-3,2.5-11.2,1.7-17.7,1.5h0Z"/>
    <path class="st20" d="M412,248.6c-1.2-.1-2.2.8-2.2,2,0,.6.2,3.1.4,4.1.5,2.7.6,2.9,1,3.7.1.3.4.5.6.6.6.2,1.8.5,4.2.8,4.7-.1,7.9-.1,9.2-.2.8,0,1.2-.8.9-1.5-.6-1.1-1.7-2.9-4.1-5.9-5.3-2.7-8.3-3.4-10-3.6h0Z"/>
    <path class="st27" d="M412.7,249.6s11.1,9,9.4,8.9l-7.9-.6s-1.6,0-2.8-4.4c.9-4,1.3-3.8,1.3-3.8h0Z"/>
    <path class="st39" d="M412.9,249.7l2.7,2.1-4.2.6s-1.9-3,0-2.9,1.5.2,1.5.2h0Z"/>
    <path d="M207.1,206.4s.8,1.4-3.7,4.6c-5.5,3.1-34,18.6-34,18.6,0,0-7.4,1.1-9.5,1,43-23.9,43.9-24.3,43.9-24.3h3.2,0Z"/>
    <path class="st8" d="M203.8,205.2l-19.1-.6s-2.6-.1-.6,2.9c5.8,2.9,9.4,4.5,9.4,4.5,0,0,2.1,1.4,3.9-.2,7.3-4.7,6.8-4.4,6.8-4.4,0,0,1.3-1.3-.3-2.3h0Z"/>
    <path class="st38" d="M164.6,230.4s-2.7.4-4.6.3c-4.2,4.5-3.9,5-3.9,5,0,0-1.5,2.1-1.5,4.6s.3,13,.3,13c0,0,2.7.7,4.7.5s2.8-2.2,2.8-2.2l.2-12.7s.8-8.5,1.9-8.6h0Z"/>
    <path class="st8" d="M161.1,244v3.1c0,.4-.2.7-.6.7-.2,0-.5,0-.9.1-1.5.1-4.8-.2-4.8-.2v-4.2c0,0,4.4.1,5.9,0,.2,0,.4.1.4.4Z"/>
    <path class="st1" d="M160.2,253.7c0,2.3.9,2.6.9,2.6h16s1.9,1.2,1.2,1.5"/>
    <path class="st25" d="M325.4,226.6l-23.5-13s-3.1-3-15.7-4.9c-14.5-1.6-38.9-1.7-38.9-1.7l-21.1,1s-8.6,0-17.1,5.5-15.5,12.2-15.5,12.2c0,0-2.7,2.9,2.2,6.2,17.5,1.3,56.6,3.4,56.6,3.4l72.9,3.5.6-1-5.1-1.4s-2.1-.1-2.1-3.1.6-4.6.6-4.6c0,0,.1-1.6,5.9-2.1h0Z"/>
    <polygon class="st33" points="252.4 208.6 256.7 235.4 251.2 235.1 247.4 206.9 252.2 206.9 252.4 208.6"/>
    <path class="st1" d="M252.5,235.2s-2.8,11.8-2.1,22.6c.6,12.2,3.4,23.8,3.4,23.8"/>
    <line class="st1" x1="216.9" y1="281.4" x2="358.4" y2="281.7"/>
    <rect class="st21" x="171.8" y="237.2" width="12.3" height="11.4" rx="4.6" ry="4.6"/>
    <rect class="st18" x="354.1" y="253.5" width="6.4" height="2.9" rx="1.2" ry="1.2"/>
    <path class="st23" d="M326.1,237.7l.6,1s11.3.5,12.7.4.3-1.3.3-1.3l-10.3-8.5-3.3,8.4h0Z"/>
    <path class="st22" d="M326,226.9l2.4,1.7c.6.4,1.1,1,1.3,1.8l1.1,3.8c.3.9,0,1.8-.7,2.4h0l-2.3,1.2h0l-5.9-1.3h0s-3.3-.2-3-3.3.6-4.6.6-4.6c0,0-.5-1.2,5.2-2,.5,0,.9,0,1.3.3h0Z"/>
    <path class="st2" d="M343.6,235.2v1.5s0,2.1-1.5,2h-1.5"/>
    <path class="st2" d="M342,238.7s4.3,4.4,4.5,13.7c.2,9.3-.5,18.3-.5,18.3,0,0-.5,6.3-2.4,11.3"/>
    <line class="st2" x1="400" y1="258.8" x2="411.2" y2="258.4"/>
    <path class="st19" d="M433.2,270.7l-2.6,1.1s-1.4.1-1,1.8c-1.6,4.5-1.6,5.1-1.6,5.1l1.8-.2s2.1-3.1,3.4-7.9h0Z"/>
    <path class="st2" d="M429.8,278.5s-.3.8-2.8,1.1-17.1.5-17.1.5"/>
    <path class="st16" d="M346.5,263.5l-.2,3.3h8.8c0-.1,3.3-1.7,0-3.4h-8.6Z"/>
    <path class="st16" d="M250.8,262.6l.3,3.1-32-.3s-4.3-1.8,0-3.4l31.6.5h0Z"/>
    <polygon class="st16" points="346.5 263.5 250.8 262.6 251.1 265.7 346.3 266.8 346.5 263.5"/>
    <path class="st0" d="M233,275.5c0,0,0,0,.1-.2l.3-.5s0-.1,0-.1c0,0,0,0-.1,0h-2.4c-1.4-.2-2.5-.2-3.3-.1l-1.1.2c-.4,0-.6.2-.7.4,0,0,0,.1,0,.2,0,.2.2.4.5.6.3.2.7.4,1.2.5.7.2,1.5.3,2.6.4l-.8.2c-.5.2-1,.3-1.7.5l-2.6.4c0,0,0,0,0,0h0c0,0,.4.4.4.4.4.3.9.6,1.3.8l.4.2c0,0,.2,0,.3,0l2.2-1c.5-.2,1-.4,1.4-.5.4-.1.9-.2,1.3-.3l.4.9c.1.3.3.5.4.6.1,0,.4.1.8.1h.7c0-.1.2-.2.2-.3,0,0,.1-.2.1-.2s0,0,0-.1c-.1,0-.3-.2-.4-.3l-.7-.8-.3-.4c0-.2,0-.4,0-.4s-.1,0-.3,0l-.4-.6v-.2s.3,0,.3,0h.2s0,0,0,0ZM231.5,276.1l-1.4-.2c-.7-.1-1.3-.3-1.8-.4h2.5c0,0,.7,0,.7,0-.1.1-.2.3-.1.5h0c0,.1,0,.1,0,.1Z"/>
    <path class="st5" d="M228.2,277s0,0,0,0h-3s0,0,0,0v.3c-.1,0-.1,0-.1,0h1.1s0,0,0,0l-.6,1.4s0,0,0,0h.7s.6-1.4.6-1.4h0s1.1,0,1.1,0h0s.1-.3.1-.3h0Z"/>
    <path class="st5" d="M231.7,276.9h-.8s-1.4.9-1.4.9c0,0,0,0,0,0l-.5-.9h0s-.4,0-.4,0c0,0,0,0,0,0l.6,1.1h0c0,0-.2.6-.2.6,0,0,0,0,0,0h.7s.2-.6.2-.6h0c0,0,1.8-1.2,1.8-1.2,0,0,0,0,0,0"/>
    <path class="st5" d="M234.6,277.1c0-.1-.2-.2-.5-.2h-2.1s0,0,0,0l-.8,1.7s0,0,0,0h.7s.3-.7.3-.7h0s1.5,0,1.5,0c.4,0,.8-.2.9-.5,0-.2,0-.3,0-.4h0ZM233.6,277.3c.1,0,.2,0,.3,0,0,0,0,0,0,.1,0,.2-.2.2-.5.2h-1s0,0,0,0l.2-.3h0s1,0,1,0h0Z"/>
    <path class="st5" d="M237.6,277.3h0s.1-.3.1-.3c0,0,0,0,0,0h-2.5s-.8,1.8-.8,1.8c0,0,0,0,0,0h2.5s.1-.3.1-.3c0,0,0,0,0,0h-1.8s0,0,0,0v-.3c.1,0,.2,0,.2,0h1.6s.1-.3.1-.3c0,0,0,0,0,0h-1.6s0,0,0,0v-.3c.1,0,.2,0,.2,0h1.8Z"/>
    <g>
      <path class="st14" d="M234.3,274.7h0s-.9,0-.9,0c0,0,0,0,0,0v1.7s0,0,0,0h.9v-1.7ZM234.8,274.9c-.1.1-.2.4-.2.6s0,.5.2.6c.1.1.3.2.6.2h2.3s0,0,0,0v-.4h0s-1.6,0-1.6,0c-.1,0-.2,0-.3-.1,0,0,0-.2,0-.3s0-.3,0-.3c0,0,.1-.1.3-.1h1.6s0,0,0,0v-.4h0s-2.3,0-2.3,0c-.3,0-.4.1-.6.2M230.6,274.7h0s-.9,0-.9,0h0v1.7h0s1.4,0,1.4,0c.3,0,.6-.2.9-.5l1.1-1.3h0s-.8,0-.8,0h0s-.9,1.1-.9,1.1c-.1.1-.2.2-.3.2h-.2s-.2,0-.2,0h0s0-1.3,0-1.3h0ZM229.2,274.7s0,0,0,0h-.9v1.7h0s.9,0,.9,0c0,0,0,0,0,0v-1.7ZM225.1,274.9c-.1.1-.2.4-.2.6s0,.5.2.6c.1.1.3.2.5.2h.2s2,0,2,0c0,0,0,0,0,0v-.4h0s-1.6,0-1.6,0c-.1,0-.2,0-.3-.1,0,0,0-.2,0-.3s0-.3,0-.3c0,0,.1-.1.3-.1h1.6s0,0,0,0v-.4h0s-2.3,0-2.3,0c-.3,0-.4.1-.6.2"/>
      <path class="st13" d="M239.1,275.5h.2s.3,0,.3,0v.2s-.4.6-.4.6c-.2,0-.3,0-.3,0,0,0,0,.2,0,.4l-.3.4-.7.8c-.1.2-.3.3-.4.3,0,0,0,0,0,.1s0,.1.1.2c0,0,.2.2.2.2h.7c.4,0,.6,0,.8,0,.1,0,.2-.3.4-.6l.4-.9c.4,0,.8.2,1.3.3.4.1.8.3,1.4.5l2.2,1c.1,0,.2,0,.3,0l.4-.2c.4-.2.8-.5,1.3-.8l.4-.3h0c0,0,0-.1,0-.1l-2.6-.4c-.6-.1-1.2-.3-1.7-.5l-.8-.2c1.1-.1,1.9-.2,2.6-.4.5-.1.9-.3,1.2-.5.3-.2.5-.4.5-.6,0-.1,0-.2,0-.2-.1-.2-.4-.3-.7-.4l-1.1-.2c-.8,0-1.9,0-3.3,0h-1.4c0,.1-1,.1-1,.1,0,0,0,0-.1,0,0,0,0,0,0,.1l.3.5c0,0,0,.1.1.2h0ZM240.6,276c0-.3,0-.4-.1-.5h.7s2.5,0,2.5,0c-.5.2-1.1.3-1.8.4l-1.4.2h0c0-.1,0-.1,0-.1Z"/>
      <path d="M227.9,277s0,0,0,0h-3s0,0,0,0v.3c-.1,0-.1,0-.1,0h1.1s0,0,0,0l-.6,1.4s0,0,0,0h.7s.6-1.4.6-1.4h0s1.1,0,1.1,0h0s.1-.3.1-.3h0Z"/>
      <path d="M231.4,276.9h-.8s-1.4.9-1.4.9c0,0,0,0,0,0l-.5-.9h0s-.4,0-.4,0c0,0,0,0,0,0l.6,1.1h0c0,0-.2.6-.2.6,0,0,0,0,0,0h.7s.2-.6.2-.6h0c0,0,1.8-1.2,1.8-1.2,0,0,0,0,0,0h0Z"/>
      <path d="M234.3,277.1c0-.1-.2-.2-.5-.2h-2.1s0,0,0,0l-.8,1.7s0,0,0,0h.7s.3-.7.3-.7h0s1.5,0,1.5,0c.4,0,.8-.2.9-.5,0-.2,0-.3,0-.4h0ZM233.3,277.3c.1,0,.2,0,.3,0,0,0,0,0,0,.1,0,.2-.2.2-.5.2h-1s0,0,0,0l.2-.3h0s1,0,1,0h0Z"/>
      <path d="M237.4,277.3h0s.1-.3.1-.3c0,0,0,0,0,0h-2.5s-.8,1.8-.8,1.8c0,0,0,0,0,0h2.5s.1-.3.1-.3c0,0,0,0,0,0h-1.8s0,0,0,0v-.3c.1,0,.2,0,.2,0h1.6s.1-.3.1-.3c0,0,0,0,0,0h-1.6s0,0,0,0v-.3c.1,0,.2,0,.2,0h1.8Z"/>
    </g>
    <path class="st2" d="M150.2,272.7s14,3.4,16.2,3"/>
  </g>
  <g id="Cluster">
    <path class="st24" d="M600,72.1c-31.2-12.6-75.4-15.9-90.9-16.7C478.9,21.9,435.2.7,386.7.7h-192.5c-48.4,0-92.1,21.2-122.3,54.7h0S28.6,56.8,0,72.3v120.2l32.7.7h515.5c0,0,.2,0,.2,0l51.5-.9v-120.2Z"/>
    <circle class="st4" cx="453.8" cy="117.6" r="60.9"/>
    <g>
      <ellipse cx="156.2" cy="45.8" rx="10.2" ry="6.4"/>
      <ellipse cx="179.6" cy="41.4" rx="10.2" ry="6.4"/>
      <ellipse cx="202.5" cy="43" rx="10.2" ry="6.4"/>
      <ellipse cx="225.1" cy="43" rx="10.2" ry="6.4"/>
      <ellipse cx="192.3" cy="64.3" rx="10.2" ry="6.4"/>
      <ellipse cx="214.5" cy="64.3" rx="10.2" ry="6.4"/>
      <ellipse cx="208.2" cy="85.7" rx="10.2" ry="6.4"/>
      <ellipse cx="435.2" cy="46.6" rx="10.2" ry="6.4"/>
      <ellipse cx="411.8" cy="42.2" rx="10.2" ry="6.4"/>
      <ellipse cx="389" cy="43.7" rx="10.2" ry="6.4"/>
      <ellipse cx="366.3" cy="43.7" rx="10.2" ry="6.4"/>
      <ellipse cx="399.1" cy="65.1" rx="10.2" ry="6.4"/>
      <ellipse cx="377" cy="65.1" rx="10.2" ry="6.4"/>
      <ellipse cx="383.2" cy="86.4" rx="10.2" ry="6.4"/>
      <ellipse cx="375.9" cy="161.7" rx="10.2" ry="6.4"/>
    </g>
    <g>
      <circle class="st31" cx="358.3" cy="172.2" r="5.6"/>
      <path d="M356.3,173.6s-1.5-3.9,2.8-3.5l8,8.1-4.1,2.3-6.8-6.9h0Z"/>
      <circle class="st34" cx="364.8" cy="178.8" r="2.4"/>
    </g>
    <circle class="st4" cx="140.2" cy="116" r="60.9"/>
    <circle class="st4" cx="293" cy="105.3" r="75.1"/>
    <g>
      <rect class="st8" x="139.2" y="64.9" width="2.1" height="7.7"/>
      <rect class="st8" x="135.5" y="67" width="1.1" height="3.8" transform="translate(-5.5 12.1) rotate(-5)"/>
      <rect class="st8" x="131.3" y="67.5" width="1.1" height="3.8" transform="translate(-10.1 23.9) rotate(-10)"/>
      <rect class="st8" x="127.2" y="68.5" width="1.1" height="3.8" transform="translate(-13.9 35.4) rotate(-15)"/>
      <rect class="st8" x="123.1" y="69.7" width="1.1" height="3.8" transform="translate(-17 46.6) rotate(-20)"/>
      <rect class="st8" x="119.2" y="71.3" width="1.1" height="3.8" transform="translate(-19.7 57.5) rotate(-25)"/>
      <rect class="st8" x="111.9" y="75.6" width="1.1" height="3.8" transform="translate(-24.1 78.5) rotate(-35)"/>
      <rect class="st8" x="108.6" y="78.1" width="1.1" height="3.8" transform="translate(-25.9 88.9) rotate(-40)"/>
      <rect class="st8" x="105.5" y="81" width="1.1" height="3.8" transform="translate(-27.6 99.2) rotate(-45)"/>
      <rect class="st8" x="102.6" y="84.1" width="1.1" height="3.8" transform="translate(-29 109.7) rotate(-50)"/>
      <rect class="st8" x="100.1" y="87.4" width="1.1" height="3.8" transform="translate(-30.3 120.5) rotate(-55)"/>
      <rect class="st8" x="95.8" y="94.7" width="1.1" height="3.8" transform="translate(-32 143.1) rotate(-65)"/>
      <rect class="st8" x="94.2" y="98.6" width="1.1" height="3.8" transform="translate(-32.2 155.2) rotate(-70)"/>
      <rect class="st8" x="92.9" y="102.7" width="1.1" height="3.8" transform="translate(-31.7 167.8) rotate(-75)"/>
      <rect class="st8" x="92" y="106.8" width="1.1" height="3.8" transform="translate(-30.6 181) rotate(-80)"/>
      <rect class="st8" x="91.5" y="111" width="1.1" height="3.8" transform="translate(-28.5 194.7) rotate(-85)"/>
      <rect class="st8" x="90.1" y="120.8" width="3.8" height="1.1" transform="translate(-10.2 8.5) rotate(-5)"/>
      <rect class="st8" x="90.7" y="125" width="3.8" height="1.1" transform="translate(-20.4 18) rotate(-10)"/>
      <rect class="st8" x="91.6" y="129.1" width="3.8" height="1.1" transform="translate(-30.4 28.6) rotate(-15)"/>
      <rect class="st8" x="92.8" y="133.1" width="3.8" height="1.1" transform="translate(-40 40.5) rotate(-20)"/>
      <rect class="st8" x="94.4" y="137" width="3.8" height="1.1" transform="translate(-49.1 53.6) rotate(-25)"/>
      <rect class="st8" x="183.5" y="135.6" width="1.1" height="3.8" transform="translate(-18.4 246.2) rotate(-65)"/>
      <rect class="st8" x="185.2" y="131.7" width="1.1" height="3.8" transform="translate(-3.4 262.4) rotate(-70)"/>
      <rect class="st8" x="186.4" y="127.7" width="1.1" height="3.8" transform="translate(13.4 276.7) rotate(-75)"/>
      <rect class="st8" x="187.3" y="123.6" width="1.1" height="3.8" transform="translate(31.7 288.7) rotate(-80)"/>
      <rect class="st8" x="187.9" y="119.4" width="1.1" height="3.8" transform="translate(51.1 298.4) rotate(-85)"/>
      <rect class="st8" x="186.5" y="112.4" width="3.8" height="1.1" transform="translate(-9.1 16.9) rotate(-5)"/>
      <rect class="st8" x="186" y="108.2" width="3.8" height="1.1" transform="translate(-16 34.3) rotate(-10)"/>
      <rect class="st8" x="185" y="104" width="3.8" height="1.1" transform="translate(-20.7 51.9) rotate(-15)"/>
      <rect class="st8" x="183.8" y="100" width="3.8" height="1.1" transform="translate(-23.2 69.6) rotate(-20)"/>
      <rect class="st8" x="182.2" y="96.1" width="3.8" height="1.1" transform="translate(-23.6 86.8) rotate(-25)"/>
      <rect class="st8" x="177.9" y="88.8" width="3.8" height="1.1" transform="translate(-18.7 119.3) rotate(-35)"/>
      <rect class="st8" x="175.4" y="85.5" width="3.8" height="1.1" transform="translate(-13.8 134.1) rotate(-40)"/>
      <rect class="st8" x="172.5" y="82.4" width="3.8" height="1.1" transform="translate(-7.5 147.6) rotate(-45)"/>
      <rect class="st8" x="169.4" y="79.5" width="3.8" height="1.1" transform="translate(-.1 159.8) rotate(-50)"/>
      <rect class="st8" x="166.1" y="76.9" width="3.8" height="1.1" transform="translate(8.2 170.6) rotate(-55)"/>
      <rect class="st8" x="158.7" y="72.7" width="3.8" height="1.1" transform="translate(26.4 187.9) rotate(-65)"/>
      <rect class="st8" x="154.9" y="71.1" width="3.8" height="1.1" transform="translate(35.8 194.4) rotate(-70)"/>
      <rect class="st8" x="150.8" y="69.8" width="3.8" height="1.1" transform="translate(45.2 199.7) rotate(-75)"/>
      <rect class="st8" x="146.7" y="68.9" width="3.8" height="1.1" transform="translate(54.4 203.8) rotate(-80)"/>
      <rect class="st8" x="142.5" y="68.4" width="3.8" height="1.1" transform="translate(63.2 206.8) rotate(-85)"/>
      <rect class="st8" x="115" y="71.4" width="2.1" height="7.7" transform="translate(-22.1 68.1) rotate(-30)"/>
      <rect class="st8" x="97.3" y="89.1" width="2.1" height="7.7" transform="translate(-31.3 131.6) rotate(-60)"/>
      <rect class="st8" x="88" y="116" width="7.7" height="2.1"/>
      <rect class="st8" x="94.5" y="140.2" width="7.6" height="2.1" transform="translate(-57.5 68.1) rotate(-30)"/>
      <rect class="st8" x="160.6" y="74.1" width="7.7" height="2.1" transform="translate(17.1 180) rotate(-60)"/>
      <rect class="st8" x="178.3" y="91.9" width="7.7" height="2.1" transform="translate(-22.1 103.5) rotate(-30)"/>
      <rect class="st8" x="184.8" y="116" width="7.7" height="2.1"/>
    </g>
    <g>
      <rect class="st29" x="167.3" y="154.7" width="1.1" height="3.8" transform="translate(-59.2 122.9) rotate(-34.6)"/>
      <rect class="st29" x="170.6" y="152.1" width="1.1" height="3.8" transform="translate(-58.9 144.4) rotate(-39.6)"/>
      <rect class="st29" x="173.8" y="149.3" width="1.1" height="3.8" transform="translate(-56 165.8) rotate(-44.6)"/>
      <rect class="st29" x="176.6" y="146.2" width="1.1" height="3.8" transform="translate(-50.5 187) rotate(-49.6)"/>
      <rect class="st29" x="179.2" y="142.9" width="1.1" height="3.8" transform="translate(-42.4 207.4) rotate(-54.6)"/>
      <rect class="st29" x="181" y="137.4" width="2.1" height="7.6" transform="translate(-31.9 226.7) rotate(-59.6)"/>
      <rect class="st29" x="163.2" y="155" width="2.1" height="7.6" transform="translate(-57 101.8) rotate(-29.6)"/>
    </g>
    <g>
      <rect class="st8" x="293" y="34.1" width="2.7" height="9.9"/>
      <rect class="st8" x="288.2" y="36.8" width="1.4" height="4.9" transform="translate(-2.3 25.3) rotate(-5)"/>
      <rect class="st8" x="282.8" y="37.5" width="1.4" height="4.9" transform="translate(-2.6 49.8) rotate(-10)"/>
      <rect class="st8" x="277.5" y="38.7" width="1.4" height="4.9" transform="translate(-1.2 73.4) rotate(-15)"/>
      <rect class="st8" x="272.3" y="40.3" width="1.4" height="4.9" transform="translate(1.8 96) rotate(-20)"/>
      <rect class="st8" x="267.3" y="42.4" width="1.4" height="4.9" transform="translate(6.1 117.5) rotate(-25)"/>
      <rect class="st8" x="257.9" y="47.9" width="1.4" height="4.9" transform="translate(17.9 157.4) rotate(-35)"/>
      <rect class="st8" x="253.5" y="51.2" width="1.4" height="4.9" transform="translate(25 176) rotate(-40)"/>
      <rect class="st8" x="249.5" y="54.9" width="1.4" height="4.9" transform="translate(32.7 193.7) rotate(-45)"/>
      <rect class="st8" x="245.8" y="58.9" width="1.4" height="4.9" transform="translate(41 210.8) rotate(-50)"/>
      <rect class="st8" x="242.5" y="63.2" width="1.4" height="4.9" transform="translate(49.9 227.2) rotate(-55)"/>
      <rect class="st8" x="237.1" y="72.6" width="1.4" height="4.9" transform="translate(69.2 258.8) rotate(-65)"/>
      <rect class="st8" x="235" y="77.7" width="1.4" height="4.9" transform="translate(79.8 274.2) rotate(-70)"/>
      <rect class="st8" x="233.4" y="82.9" width="1.4" height="4.9" transform="translate(91 289.3) rotate(-75)"/>
      <rect class="st8" x="232.2" y="88.2" width="1.4" height="4.9" transform="translate(103.1 304.2) rotate(-80)"/>
      <rect class="st8" x="231.5" y="93.6" width="1.4" height="4.9" transform="translate(116.2 318.9) rotate(-85)"/>
      <rect class="st8" x="229.7" y="106.3" width="4.9" height="1.4" transform="translate(-8.4 20.6) rotate(-5)"/>
      <rect class="st8" x="230.4" y="111.7" width="4.9" height="1.4" transform="translate(-16 42.1) rotate(-10)"/>
      <rect class="st8" x="231.6" y="117" width="4.9" height="1.4" transform="translate(-22.5 64.6) rotate(-15)"/>
      <rect class="st8" x="233.2" y="122.2" width="4.9" height="1.4" transform="translate(-27.8 88) rotate(-20)"/>
      <rect class="st8" x="235.3" y="127.2" width="4.9" height="1.4" transform="translate(-31.8 112.5) rotate(-25)"/>
      <rect class="st8" x="350.3" y="125.4" width="1.4" height="4.9" transform="translate(86.7 391.9) rotate(-65)"/>
      <rect class="st8" x="352.4" y="120.4" width="1.4" height="4.9" transform="translate(116.8 412.6) rotate(-70)"/>
      <rect class="st8" x="354" y="115.2" width="1.4" height="4.9" transform="translate(149.2 429.9) rotate(-75)"/>
      <rect class="st8" x="355.2" y="109.9" width="1.4" height="4.9" transform="translate(183.4 443.3) rotate(-80)"/>
      <rect class="st8" x="355.9" y="104.5" width="1.4" height="4.9" transform="translate(219 452.9) rotate(-85)"/>
      <rect class="st8" x="354.1" y="95.4" width="4.9" height="1.4" transform="translate(-7 31.4) rotate(-5)"/>
      <rect class="st8" x="353.4" y="90" width="4.9" height="1.4" transform="translate(-10.3 63.2) rotate(-10)"/>
      <rect class="st8" x="352.2" y="84.7" width="4.9" height="1.4" transform="translate(-10 94.7) rotate(-15)"/>
      <rect class="st8" x="350.6" y="79.5" width="4.9" height="1.4" transform="translate(-6.1 125.6) rotate(-20)"/>
      <rect class="st8" x="348.5" y="74.4" width="4.9" height="1.4" transform="translate(1.1 155.4) rotate(-25)"/>
      <rect class="st8" x="343.1" y="65" width="4.9" height="1.4" transform="translate(24.8 210.1) rotate(-35)"/>
      <rect class="st8" x="339.8" y="60.7" width="4.9" height="1.4" transform="translate(40.6 234.3) rotate(-40)"/>
      <rect class="st8" x="336.1" y="56.7" width="4.9" height="1.4" transform="translate(58.6 256.2) rotate(-45)"/>
      <rect class="st8" x="332.1" y="53" width="4.9" height="1.4" transform="translate(78.4 275.4) rotate(-50)"/>
      <rect class="st8" x="327.7" y="49.7" width="4.9" height="1.4" transform="translate(99.6 292) rotate(-55)"/>
      <rect class="st8" x="318.3" y="44.2" width="4.9" height="1.4" transform="translate(144.5 316.6) rotate(-65)"/>
      <rect class="st8" x="313.3" y="42.1" width="4.9" height="1.4" transform="translate(167.5 324.9) rotate(-70)"/>
      <rect class="st8" x="308.1" y="40.5" width="4.9" height="1.4" transform="translate(190.4 330.5) rotate(-75)"/>
      <rect class="st8" x="302.7" y="39.3" width="4.9" height="1.4" transform="translate(212.8 333.6) rotate(-80)"/>
      <rect class="st8" x="297.3" y="38.6" width="4.9" height="1.4" transform="translate(234.5 334.5) rotate(-85)"/>
      <rect class="st8" x="261.8" y="42.5" width="2.7" height="9.9" transform="translate(11.5 137.9) rotate(-30)"/>
      <rect class="st8" x="238.9" y="65.3" width="2.7" height="9.9" transform="translate(59.3 243.2) rotate(-60)"/>
      <rect class="st8" x="227" y="100.2" width="9.9" height="2.7"/>
      <rect class="st8" x="235.3" y="131.4" width="9.9" height="2.7" transform="translate(-34.2 137.9) rotate(-30)"/>
      <rect class="st8" x="320.7" y="46.1" width="9.9" height="2.7" transform="translate(121.7 305.7) rotate(-60)"/>
      <rect class="st8" x="343.5" y="68.9" width="9.9" height="2.7" transform="translate(11.5 183.7) rotate(-30)"/>
      <rect class="st8" x="351.9" y="100.2" width="9.9" height="2.7"/>
      <rect class="st8" x="347.1" y="127.8" width="2.7" height="9.9" transform="translate(59.3 368.2) rotate(-60)"/>
    </g>
    <g>
      <rect class="st8" x="329.4" y="150.4" width="1.4" height="4.9" transform="translate(-27.8 217.9) rotate(-35.1)"/>
      <rect class="st8" x="333.7" y="147" width="1.4" height="4.9" transform="translate(-17.6 250.8) rotate(-40.1)"/>
      <rect class="st8" x="337.8" y="143.4" width="1.4" height="4.9" transform="translate(-3.6 282.9) rotate(-45.1)"/>
      <rect class="st8" x="341.4" y="139.3" width="1.4" height="4.9" transform="translate(14 313.5) rotate(-50.1)"/>
      <rect class="st8" x="344.7" y="135" width="1.4" height="4.9" transform="translate(35.2 342.3) rotate(-55.1)"/>
      <rect class="st8" x="347" y="127.9" width="2.7" height="9.9" transform="translate(59.7 368.8) rotate(-60.1)"/>
      <rect class="st8" x="324.2" y="150.8" width="2.7" height="9.9" transform="translate(-34.2 184.5) rotate(-30.1)"/>
    </g>
    <rect class="st8" x="423.9" y="143.4" width=".9" height="3.3" transform="translate(40.5 376.8) rotate(-50)"/>
    <rect class="st8" x="426.1" y="140.5" width=".9" height="3.3" transform="translate(65.5 410) rotate(-55)"/>
    <rect class="st8" x="428" y="137.4" width=".9" height="3.3" transform="translate(93.8 440.6) rotate(-60)"/>
    <rect class="st8" x="429.7" y="134.2" width=".9" height="3.3" transform="translate(125.2 468.3) rotate(-65)"/>
    <rect class="st8" x="431.1" y="130.8" width=".9" height="3.3" transform="translate(159.4 492.7) rotate(-70)"/>
    <rect class="st8" x="433" y="123.9" width=".9" height="3.3" transform="translate(234.6 530.5) rotate(-80)"/>
    <rect class="st8" x="433.4" y="120.2" width=".9" height="3.3" transform="translate(274.7 543.5) rotate(-85)"/>
    <rect class="st8" x="432.4" y="117.8" width="3.3" height=".9"/>
    <rect class="st8" x="432.2" y="114.2" width="3.3" height=".9" transform="translate(-8.3 38.3) rotate(-5)"/>
    <rect class="st8" x="431.8" y="110.6" width="3.3" height=".9" transform="translate(-12.7 76.9) rotate(-10)"/>
    <rect class="st8" x="429.9" y="103.6" width="3.3" height=".9" transform="translate(-9.6 153.9) rotate(-20)"/>
    <rect class="st8" x="428.5" y="100.2" width="3.3" height=".9" transform="translate(-2.3 191.2) rotate(-25)"/>
    <rect class="st8" x="426.8" y="97" width="3.3" height=".9" transform="translate(8.7 227.3) rotate(-30)"/>
    <rect class="st8" x="424.9" y="94" width="3.3" height=".9" transform="translate(23 261.7) rotate(-35)"/>
    <rect class="st8" x="422.7" y="91.1" width="3.3" height=".9" transform="translate(40.4 294.2) rotate(-40)"/>
    <rect class="st8" x="418.6" y="88" width="6.6" height="1.8" transform="translate(60.7 324.3) rotate(-45)"/>
    <rect class="st8" x="429.3" y="106.6" width="6.6" height="1.8" transform="translate(-13.1 115.6) rotate(-15)"/>
    <rect class="st8" x="431.7" y="125.7" width="1.8" height="6.6" transform="translate(196 513.5) rotate(-75)"/>
    <rect class="st29" x="421" y="144.4" width="1.8" height="6.6" transform="translate(19.1 341.6) rotate(-45)"/>
    <g>
      <rect class="st8" x="479.6" y="143.3" width="3.3" height=".9" transform="translate(20.2 343) rotate(-40)"/>
      <rect class="st8" x="477.4" y="140.4" width="3.3" height=".9" transform="translate(5.8 300.3) rotate(-35)"/>
      <rect class="st8" x="475.5" y="137.3" width="3.3" height=".9" transform="translate(-5 257) rotate(-30)"/>
      <rect class="st8" x="473.8" y="134.1" width="3.3" height=".9" transform="translate(-12.3 213.5) rotate(-25)"/>
      <rect class="st8" x="472.4" y="130.8" width="3.3" height=".9" transform="translate(-16.3 170) rotate(-20)"/>
      <rect class="st8" x="470.5" y="123.8" width="3.3" height=".9" transform="translate(-14.4 83.9) rotate(-10)"/>
      <rect class="st8" x="470" y="120.2" width="3.3" height=".9" transform="translate(-8.7 41.6) rotate(-5)"/>
      <rect class="st8" x="469.9" y="116.5" width="3.3" height=".9"/>
      <rect class="st8" x="471.2" y="111.7" width=".9" height="3.3" transform="translate(317.6 573.4) rotate(-85)"/>
      <rect class="st8" x="471.7" y="108.1" width=".9" height="3.3" transform="translate(282.1 555.7) rotate(-80)"/>
      <rect class="st8" x="473.6" y="101.1" width=".9" height="3.3" transform="translate(215.3 513.1) rotate(-70)"/>
      <rect class="st8" x="475" y="97.8" width=".9" height="3.3" transform="translate(184.4 488.3) rotate(-65)"/>
      <rect class="st8" x="476.7" y="94.6" width=".9" height="3.3" transform="translate(155.2 461.3) rotate(-60)"/>
      <rect class="st8" x="478.6" y="91.5" width=".9" height="3.3" transform="translate(128 432.1) rotate(-55)"/>
      <rect class="st8" x="480.8" y="88.6" width=".9" height="3.3" transform="translate(102.8 400.9) rotate(-50)"/>
      <rect class="st29" x="482.8" y="84.3" width="1.8" height="6.6" transform="translate(79.7 367.7) rotate(-45)"/>
      <rect class="st8" x="472.1" y="102.9" width="1.8" height="6.6" transform="translate(247.9 535.6) rotate(-75)"/>
      <rect class="st8" x="469.7" y="126.9" width="6.6" height="1.8" transform="translate(-17 126.8) rotate(-15)"/>
      <rect class="st8" x="480.4" y="145.5" width="6.6" height="1.8" transform="translate(38.1 384.9) rotate(-45)"/>
    </g>
    <g>
      <circle class="st35" cx="140.2" cy="117.6" r="7.9"/>
      <path class="st15" d="M154.1,107.2s3.5,0,2,4.2c-10.6,5.7-61,32.2-61,32.2l-4.4.2,1.5-3.9,61.9-32.7h0Z"/>
    </g>
    <g>
      <circle class="st35" cx="294.5" cy="104.5" r="7.9"/>
      <path class="st15" d="M308.1,94.2s4,0,2.3,4.8c-12.3,6.6-71.1,37.5-71.1,37.5l-5.2.3,1.8-4.5,72.1-38.1h0Z"/>
    </g>
    <g class="st11">
      <text class="st10" transform="translate(488.4 85.3)"><tspan x="0" y="0">H</tspan></text>
    </g>
    <g class="st11">
      <text class="st6" transform="translate(410.7 85.3)"><tspan x="0" y="0">F</tspan></text>
    </g>
    <g class="st11">
      <text class="st6" transform="translate(486.8 156.4)"><tspan x="0" y="0">C</tspan></text>
    </g>
    <g class="st11">
      <text class="st6" transform="translate(411 156.4)"><tspan x="0" y="0">E</tspan></text>
    </g>
    <g class="st11">
      <text class="st6" transform="translate(247.1 142.2)"><tspan x="0" y="0">0</tspan></text>
    </g>
    <g class="st11">
      <text class="st6" transform="translate(240.8 106.4)"><tspan x="0" y="0">20</tspan></text>
    </g>
    <g class="st11">
      <text class="st6" transform="translate(98.3 121.4)"><tspan x="0" y="0">1</tspan></text>
    </g>
    <g class="st11">
      <text class="st6" transform="translate(104.8 100.8)"><tspan x="0" y="0">2</tspan></text>
    </g>
    <g class="st11">
      <text class="st6" transform="translate(117.2 88.9)"><tspan x="0" y="0">3</tspan></text>
    </g>
    <g class="st11">
      <text class="st6" transform="translate(136.9 83.6)"><tspan x="0" y="0">4</tspan></text>
    </g>
    <g class="st11">
      <text class="st6" transform="translate(156.8 88.9)"><tspan x="0" y="0">5</tspan></text>
    </g>
    <g class="st11">
      <text class="st6" transform="translate(170.8 102.2)"><tspan x="0" y="0">7</tspan></text>
    </g>
    <g class="st11">
      <text class="st6" transform="translate(174.4 120.1)"><tspan x="0" y="0">8</tspan></text>
    </g>
    <g class="st11">
      <text class="st12" transform="translate(171.2 141.7)"><tspan x="0" y="0">9</tspan></text>
    </g>
    <g class="st11">
      <text class="st12" transform="translate(152.1 153.1)"><tspan x="0" y="0">10</tspan></text>
    </g>
    <g class="st11">
      <text class="st6" transform="translate(263.9 63.7)"><tspan x="0" y="0">60</tspan></text>
    </g>
    <g class="st11">
      <text class="st6" transform="translate(247.3 80)"><tspan x="0" y="0">40</tspan></text>
    </g>
    <g class="st11">
      <text class="st6" transform="translate(287.9 54.8)"><tspan x="0" y="0">80</tspan></text>
    </g>
    <g class="st11">
      <text class="st6" transform="translate(310.5 62.7)"><tspan x="0" y="0">100</tspan></text>
    </g>
    <g class="st11">
      <text class="st6" transform="translate(324.3 81.1)"><tspan x="0" y="0">120</tspan></text>
    </g>
    <g class="st11">
      <text class="st6" transform="translate(328.1 105.8)"><tspan x="0" y="0">140</tspan></text>
    </g>
    <g class="st11">
      <text class="st6" transform="translate(321.4 130.5)"><tspan x="0" y="0">160</tspan></text>
    </g>
    <g class="st11">
      <text class="st6" transform="translate(308.8 148.2)"><tspan x="0" y="0">180</tspan></text>
    </g>
    <g>
      <circle class="st35" cx="499.2" cy="118.5" r="3.5"/>
      <path class="st15" d="M506.6,117.3s1.6.8-.1,2.4c-6.2,0-35.6-.5-35.6-.5l-2.1-1,1.6-1.4,36.1.4h0Z"/>
    </g>
    <g>
      <circle class="st35" cx="411.6" cy="118.8" r="3.5"/>
      <path class="st15" d="M401.7,125.9s-.6,1.7,1.7,1.7c4.6-4.2,26.2-24.1,26.2-24.1l.9-2.1h-2.1c0,0-26.6,24.5-26.6,24.5h0Z"/>
    </g>
    <g>
      <path class="st7" d="M288,158.5h0c0,0-1.7,0-1.7,0,0,0,0,0,0,0v3.3c0,0,0,0,0,0h1.8v-3.4ZM289,159c-.2.2-.4.7-.4,1.2s.1,1,.4,1.3c.2.2.6.4,1.1.5h4.4c0,0,0,0,0,0v-.7h0c0,0-3.2,0-3.2,0-.3,0-.5,0-.5-.2,0-.1-.1-.3-.1-.7s0-.5.1-.6c.1-.1.2-.2.5-.2h3.2s0,0,0,0v-.7h0c0,0-4.4,0-4.4,0-.5,0-.9.2-1.1.5M280.9,158.5h0c0,0-1.7,0-1.7,0h0v3.4h0c0,0,2.7,0,2.7,0,.7,0,1.2-.3,1.8-.9l2.1-2.5h0c0,0,0-.1,0-.1h-1.7c0,0-1.8,2.1-1.8,2.1-.2.2-.4.4-.5.4h-.4c0,0-.4,0-.4,0h0v-2.5h0ZM278.2,158.5s0,0,0,0h-1.8v3.4h0c0,0,1.7,0,1.7,0,0,0,0,0,0,0v-3.3ZM270,159c-.2.2-.3.7-.3,1.2s.1,1,.4,1.3c.2.2.6.4,1.1.5h.5c0,0,4,0,4,0,0,0,.1,0,.1-.1v-.7h-.1c0,0-3.2,0-3.2,0-.2,0-.5,0-.5-.2,0-.1-.1-.3-.1-.7s0-.5.1-.6c.1-.1.3-.2.5-.2h3.2c0,0,.1,0,.1,0v-.7h-.1c0,0-4.4,0-4.4,0-.5,0-.9.2-1.1.5"/>
      <path class="st13" d="M297.5,160.2h.3c0,0,.6,0,.6,0v.3c0,0-.8,1.1-.8,1.1-.4,0-.6,0-.7.1,0,0,0,.3.1.8l-.5.8-1.3,1.5c-.3.3-.5.6-.8.6-.1,0-.2.1-.2.2s0,.3.2.5c.1.2.3.3.5.4h1.4c.8.1,1.3,0,1.5-.1.2-.2.5-.5.7-1.1l.8-1.8c.8.1,1.6.3,2.5.6.7.2,1.6.6,2.7,1.1l4.3,2c.2.1.4.1.6.1l.7-.3c.8-.4,1.6-.9,2.5-1.5l.8-.6h0c0-.2,0-.2-.1-.2l-5-.8c-1.3-.3-2.4-.6-3.3-.9l-1.6-.5c2-.2,3.7-.5,5.1-.8.9-.2,1.7-.6,2.3-.9.6-.4.9-.8.9-1.1,0-.2,0-.3-.1-.5-.2-.3-.7-.5-1.4-.7l-2.2-.3c-1.6-.1-3.8-.1-6.4,0l-2.8.2h-1.9c-.1,0-.1,0-.2,0,0,0,0,.2,0,.3l.6,1.1c0,.1.1.2.2.3h0ZM300.4,161.1c.1-.5,0-.9-.2-1.1h1.4c0,0,4.9,0,4.9,0-.9.3-2.1.6-3.4.8l-2.7.4v-.3s0,0,0,0Z"/>
      <path class="st8" d="M275.6,163.1c0,0,0,0,0,0h-5.8s-.1,0-.1,0l-.3.6c0,0,0,0,0,0h2.1s0,0,0,0l-1.3,2.7c0,0,0,0,0,0h1.4c0,0,1.3-2.8,1.3-2.8h.1c0,0,2.1,0,2.1,0h.1c0,0,.2-.6.2-.6h0Z"/>
      <path class="st8" d="M282.4,163h-1.5c0,0-2.7,1.8-2.7,1.8,0,0,0,0-.1,0l-1-1.7h-.1c0,0-.8,0-.8,0,0,0,0,0,0,0l1.3,2.2h0c0,.1-.5,1.2-.5,1.2,0,0,0,0,0,0h1.4c0,0,.5-1.1.5-1.1h.1c0-.1,3.4-2.4,3.4-2.4,0,0,0,0,0,0h0Z"/>
      <path class="st8" d="M288.1,163.3c-.2-.2-.5-.3-.9-.3h-4c0,0-.1,0-.1,0l-1.6,3.4c0,0,0,0,0,0h1.3c0,0,.6-1.4.6-1.4h.1c0,0,2.9,0,2.9,0,.9,0,1.5-.4,1.8-1,.1-.3.1-.6-.1-.8h0ZM286.2,163.7c.2,0,.4,0,.5.1.1,0,.1.1.1.2-.1.3-.5.4-1,.4h-2s0,0,0,0l.3-.6h.1c0,0,2,0,2,0h0Z"/>
      <path class="st8" d="M294,163.7h.1c0,0,.2-.6.2-.6,0,0,0,0,0,0h-5c0,0-1.6,3.5-1.6,3.5,0,0,0,0,0,0h5c0,0,.2-.7.2-.7,0,0,0,0,0,0h-3.4s0,0,0,0l.2-.6s0,0,.1,0h3.2c0,0,.3-.6.3-.6,0,0,0,0,0,0h-3.1c0,0,0,0,0,0l.2-.6h.1c0,0,3.4,0,3.4,0h0Z"/>
    </g>
  </g>
  <g>
    <path class="st36" d="M144,276.4l-3.5,2-8.6,1.5,2,2.4-5.1,2.9,4.9,2.8-1.4,3.3,5.7-.7,5.9,3.4c1.9,1.1,4.2-.3,4.2-2.4v-12.6c0-2.2-2.4-3.5-4.2-2.4Z"/>
    <path class="st3" d="M143.9,278.3l-2.7,1.6-6.8,1.1,1.6,1.9-4,2.3,3.8,2.2-1.1,2.6,4.5-.6,4.7,2.7c1.5.9,3.3-.2,3.3-1.9v-10c0-1.7-1.9-2.8-3.3-1.9Z"/>
  </g>
  <path class="st8" d="M134.4,238.8h38.6v32.6h-11.6l-.7-9.6c-5.7,6.3-14.9,10.4-27.8,10.4-22.4,0-36.2-11.1-36.2-31.3s13.7-31.3,38.8-31.3,36.5,9.5,37.5,24.6h-15.9c-.9-4.6-5-11.5-21.6-11.5s-23.1,11.2-23.1,18.5,2.9,18.9,23.1,18.9,21.2-6.6,21.6-11.2h-22.7v-10.2Z"/>
  <path d="M178.8,245.9c0-18.9,14.3-26.5,35.5-26.5s35.5,7.7,35.5,26.5-14.4,26.5-35.5,26.5-35.5-7.7-35.5-26.5ZM234.8,245.9c0-10.7-6.8-14.1-20.5-14.1s-20.6,3.4-20.6,14.1,6.8,14,20.6,14,20.5-3.4,20.5-14Z"/>
  <path d="M254.1,245.9c0-18.9,14.3-26.5,35.5-26.5s35.5,7.7,35.5,26.5-14.4,26.5-35.5,26.5-35.5-7.7-35.5-26.5ZM310.1,245.9c0-10.7-6.8-14.1-20.5-14.1s-20.6,3.4-20.6,14.1,6.8,14,20.6,14,20.5-3.4,20.5-14Z"/>
  <path class="st8" d="M400.8,220.2v43.1c0,20.9-14,29.9-33.4,29.9s-27.1-2.8-32.1-4.1v-12c6,1.1,17.5,3.7,28.8,3.7s21.1-5.9,21.8-19.1c-5.2,5.7-13.8,9.1-25.9,9.1-17.6,0-30.1-7.7-30.1-25.8s12.5-25.8,30.1-25.8,20.8,3.4,25.9,9.1v-8.3h15ZM385.9,245.1c0-9.4-6.5-13.3-20.5-13.3s-20.6,3.9-20.6,13.3,6.6,13.3,20.6,13.3,20.5-3.9,20.5-13.3Z"/>
  <path class="st36" d="M422.7,201.9v69.6h-14.9v-69.6h14.9Z"/>
  <path class="st8" d="M483.2,253.1h14.8c-3.4,13.1-16.1,19.2-35.1,19.2s-34.6-7.7-34.6-26.5,14.7-26.5,35.5-26.5,35.1,6.7,35.1,30h-55.3c1.7,8.2,9.5,10.9,19.4,10.9s16.5-1.9,20.3-7.1ZM444.1,239.9h38.9c-2.5-7.2-9.8-9.2-19.2-9.2s-17.3,2-19.7,9.2Z"/>
</svg>